<?xml version="1.0" encoding="UTF-8"?>
<svg xmlns="http://www.w3.org/2000/svg" version="1.1" width="300" height="300" viewBox="0 0 300 300"><rect x="0" y="0" width="300" height="300" fill="#ffffff"/><g transform="scale(8.108)"><g transform="translate(0,0)"><path fill-rule="evenodd" d="M10 0L10 3L11 3L11 1L12 1L12 0ZM14 0L14 1L15 1L15 2L13 2L13 3L12 3L12 4L11 4L11 5L10 5L10 4L9 4L9 5L8 5L8 8L4 8L4 10L3 10L3 9L1 9L1 11L2 11L2 12L1 12L1 13L0 13L0 14L1 14L1 15L2 15L2 16L3 16L3 17L4 17L4 16L5 16L5 19L3 19L3 18L2 18L2 17L1 17L1 16L0 16L0 17L1 17L1 18L0 18L0 19L1 19L1 21L0 21L0 22L1 22L1 23L0 23L0 26L2 26L2 27L3 27L3 26L5 26L5 25L3 25L3 26L2 26L2 25L1 25L1 24L2 24L2 23L3 23L3 24L6 24L6 25L7 25L7 24L8 24L8 23L9 23L9 25L11 25L11 26L9 26L9 27L8 27L8 26L6 26L6 27L7 27L7 28L4 28L4 29L7 29L7 28L9 28L9 27L10 27L10 28L11 28L11 29L12 29L12 30L11 30L11 32L9 32L9 30L10 30L10 29L8 29L8 33L9 33L9 34L10 34L10 33L12 33L12 31L13 31L13 33L14 33L14 31L15 31L15 33L16 33L16 35L14 35L14 34L12 34L12 35L13 35L13 36L14 36L14 37L16 37L16 36L17 36L17 35L18 35L18 36L19 36L19 35L20 35L20 37L21 37L21 36L22 36L22 37L24 37L24 36L25 36L25 35L26 35L26 37L27 37L27 35L26 35L26 33L27 33L27 32L28 32L28 33L30 33L30 35L29 35L29 34L28 34L28 35L29 35L29 37L31 37L31 36L32 36L32 35L31 35L31 33L34 33L34 35L33 35L33 36L34 36L34 37L37 37L37 36L36 36L36 34L35 34L35 33L37 33L37 32L35 32L35 31L36 31L36 29L37 29L37 28L36 28L36 29L35 29L35 27L36 27L36 25L37 25L37 24L36 24L36 21L37 21L37 20L36 20L36 19L34 19L34 17L35 17L35 15L34 15L34 14L33 14L33 13L31 13L31 12L33 12L33 11L34 11L34 13L35 13L35 12L36 12L36 13L37 13L37 11L35 11L35 10L34 10L34 9L33 9L33 10L32 10L32 11L31 11L31 12L30 12L30 10L31 10L31 9L32 9L32 8L30 8L30 10L29 10L29 11L28 11L28 10L27 10L27 9L26 9L26 7L27 7L27 6L26 6L26 7L25 7L25 5L24 5L24 4L26 4L26 3L27 3L27 5L28 5L28 7L29 7L29 5L28 5L28 3L29 3L29 1L28 1L28 0L26 0L26 1L25 1L25 2L24 2L24 4L23 4L23 3L22 3L22 1L23 1L23 0L21 0L21 3L20 3L20 4L19 4L19 6L18 6L18 4L17 4L17 3L18 3L18 1L17 1L17 0ZM19 0L19 2L20 2L20 0ZM8 1L8 2L9 2L9 1ZM27 1L27 3L28 3L28 1ZM15 2L15 3L14 3L14 6L13 6L13 7L12 7L12 5L13 5L13 4L12 4L12 5L11 5L11 7L10 7L10 5L9 5L9 7L10 7L10 8L8 8L8 9L5 9L5 11L6 11L6 12L7 12L7 13L5 13L5 12L4 12L4 11L3 11L3 12L4 12L4 14L2 14L2 15L3 15L3 16L4 16L4 14L5 14L5 15L6 15L6 16L7 16L7 15L6 15L6 14L7 14L7 13L8 13L8 14L9 14L9 13L10 13L10 12L12 12L12 8L13 8L13 10L14 10L14 11L13 11L13 12L14 12L14 14L13 14L13 15L11 15L11 18L12 18L12 19L9 19L9 17L10 17L10 16L9 16L9 15L8 15L8 17L6 17L6 18L8 18L8 19L9 19L9 21L8 21L8 20L7 20L7 19L5 19L5 20L7 20L7 21L5 21L5 23L6 23L6 24L7 24L7 23L6 23L6 22L7 22L7 21L8 21L8 22L9 22L9 23L10 23L10 24L14 24L14 25L13 25L13 26L15 26L15 25L16 25L16 27L17 27L17 28L18 28L18 27L17 27L17 26L19 26L19 27L20 27L20 26L19 26L19 25L20 25L20 24L22 24L22 23L19 23L19 22L22 22L22 21L21 21L21 20L22 20L22 18L23 18L23 15L24 15L24 17L26 17L26 18L27 18L27 17L30 17L30 19L29 19L29 18L28 18L28 19L27 19L27 21L26 21L26 19L25 19L25 18L24 18L24 19L23 19L23 24L24 24L24 25L22 25L22 26L21 26L21 28L19 28L19 29L15 29L15 30L16 30L16 31L18 31L18 32L16 32L16 33L17 33L17 34L20 34L20 35L21 35L21 33L22 33L22 32L20 32L20 29L22 29L22 30L21 30L21 31L23 31L23 29L24 29L24 32L23 32L23 35L22 35L22 36L24 36L24 35L25 35L25 33L26 33L26 31L28 31L28 30L27 30L27 29L26 29L26 26L27 26L27 28L33 28L33 27L34 27L34 26L35 26L35 25L34 25L34 24L33 24L33 26L32 26L32 27L31 27L31 26L30 26L30 27L28 27L28 25L30 25L30 24L32 24L32 23L34 23L34 22L35 22L35 21L33 21L33 20L31 20L31 17L33 17L33 14L32 14L32 16L31 16L31 13L30 13L30 12L29 12L29 13L28 13L28 12L27 12L27 13L28 13L28 15L27 15L27 17L26 17L26 10L24 10L24 8L25 8L25 7L24 7L24 5L23 5L23 4L22 4L22 3L21 3L21 9L20 9L20 10L19 10L19 9L18 9L18 8L19 8L19 7L20 7L20 6L19 6L19 7L18 7L18 6L17 6L17 7L16 7L16 6L15 6L15 3L16 3L16 2ZM25 2L25 3L26 3L26 2ZM16 4L16 5L17 5L17 4ZM14 6L14 7L13 7L13 8L14 8L14 10L15 10L15 11L14 11L14 12L15 12L15 13L17 13L17 12L18 12L18 13L19 13L19 14L16 14L16 17L13 17L13 19L12 19L12 20L11 20L11 23L14 23L14 24L15 24L15 22L16 22L16 24L17 24L17 25L19 25L19 23L17 23L17 22L19 22L19 21L20 21L20 20L21 20L21 19L20 19L20 20L18 20L18 21L17 21L17 20L16 20L16 17L17 17L17 15L18 15L18 16L19 16L19 14L20 14L20 13L23 13L23 14L22 14L22 15L23 15L23 14L24 14L24 15L25 15L25 14L24 14L24 11L23 11L23 12L21 12L21 11L20 11L20 13L19 13L19 10L18 10L18 9L16 9L16 8L14 8L14 7L15 7L15 6ZM22 6L22 9L21 9L21 10L22 10L22 9L23 9L23 8L24 8L24 7L23 7L23 6ZM11 7L11 8L10 8L10 9L11 9L11 8L12 8L12 7ZM28 8L28 9L29 9L29 8ZM35 8L35 9L36 9L36 8ZM15 9L15 10L16 10L16 12L17 12L17 10L16 10L16 9ZM6 10L6 11L7 11L7 12L8 12L8 13L9 13L9 11L11 11L11 10L9 10L9 11L8 11L8 10ZM29 13L29 14L30 14L30 13ZM13 15L13 16L14 16L14 15ZM29 15L29 16L30 16L30 17L31 17L31 16L30 16L30 15ZM21 16L21 17L20 17L20 18L21 18L21 17L22 17L22 16ZM36 16L36 17L37 17L37 16ZM1 18L1 19L2 19L2 20L3 20L3 19L2 19L2 18ZM14 18L14 20L13 20L13 21L16 21L16 22L17 22L17 21L16 21L16 20L15 20L15 18ZM32 18L32 19L33 19L33 18ZM24 19L24 22L26 22L26 21L25 21L25 19ZM28 20L28 21L27 21L27 23L26 23L26 24L25 24L25 25L24 25L24 26L23 26L23 28L22 28L22 29L23 29L23 28L24 28L24 29L25 29L25 28L24 28L24 27L25 27L25 25L27 25L27 23L28 23L28 21L31 21L31 23L32 23L32 22L33 22L33 21L31 21L31 20ZM1 21L1 22L3 22L3 21ZM29 22L29 23L30 23L30 22ZM11 27L11 28L12 28L12 29L14 29L14 27L13 27L13 28L12 28L12 27ZM0 28L0 29L3 29L3 28ZM29 29L29 32L32 32L32 29ZM33 29L33 31L34 31L34 29ZM13 30L13 31L14 31L14 30ZM18 30L18 31L19 31L19 30ZM30 30L30 31L31 31L31 30ZM24 32L24 33L25 33L25 32ZM9 36L9 37L12 37L12 36ZM0 0L0 7L7 7L7 0ZM1 1L1 6L6 6L6 1ZM2 2L2 5L5 5L5 2ZM30 0L30 7L37 7L37 0ZM31 1L31 6L36 6L36 1ZM32 2L32 5L35 5L35 2ZM0 30L0 37L7 37L7 30ZM1 31L1 36L6 36L6 31ZM2 32L2 35L5 35L5 32Z" fill="#000000"/></g></g></svg>
