<?xml version="1.0" encoding="UTF-8"?>
<svg xmlns="http://www.w3.org/2000/svg" version="1.1" width="300" height="300" viewBox="0 0 300 300"><rect x="0" y="0" width="300" height="300" fill="#ffffff"/><g transform="scale(8.108)"><g transform="translate(0,0)"><path fill-rule="evenodd" d="M8 0L8 3L9 3L9 5L8 5L8 9L9 9L9 8L10 8L10 7L11 7L11 10L6 10L6 11L8 11L8 12L6 12L6 13L5 13L5 14L4 14L4 13L3 13L3 12L4 12L4 11L5 11L5 10L4 10L4 9L5 9L5 8L2 8L2 13L1 13L1 12L0 12L0 13L1 13L1 15L4 15L4 16L5 16L5 17L2 17L2 16L0 16L0 17L2 17L2 18L3 18L3 19L1 19L1 18L0 18L0 19L1 19L1 20L2 20L2 21L0 21L0 22L2 22L2 23L0 23L0 24L2 24L2 28L3 28L3 27L4 27L4 29L5 29L5 27L7 27L7 28L6 28L6 29L8 29L8 30L10 30L10 31L11 31L11 32L12 32L12 33L10 33L10 32L8 32L8 35L9 35L9 36L10 36L10 37L16 37L16 36L14 36L14 35L15 35L15 33L16 33L16 35L17 35L17 36L18 36L18 37L21 37L21 36L19 36L19 35L17 35L17 34L20 34L20 35L21 35L21 34L22 34L22 35L23 35L23 37L27 37L27 36L30 36L30 37L37 37L37 34L36 34L36 36L34 36L34 35L33 35L33 36L32 36L32 34L33 34L33 33L35 33L35 32L36 32L36 33L37 33L37 30L33 30L33 29L35 29L35 28L36 28L36 29L37 29L37 28L36 28L36 27L37 27L37 26L36 26L36 25L37 25L37 24L36 24L36 23L37 23L37 22L36 22L36 21L37 21L37 18L34 18L34 17L35 17L35 16L36 16L36 17L37 17L37 16L36 16L36 15L37 15L37 14L35 14L35 16L31 16L31 15L34 15L34 14L32 14L32 13L33 13L33 12L34 12L34 13L37 13L37 12L36 12L36 11L37 11L37 10L36 10L36 9L37 9L37 8L34 8L34 9L32 9L32 8L28 8L28 7L29 7L29 6L28 6L28 5L27 5L27 4L29 4L29 3L27 3L27 2L28 2L28 1L26 1L26 3L25 3L25 2L24 2L24 0L23 0L23 1L22 1L22 0L19 0L19 2L18 2L18 3L19 3L19 4L18 4L18 8L17 8L17 6L16 6L16 8L17 8L17 9L13 9L13 10L12 10L12 7L13 7L13 8L15 8L15 6L14 6L14 7L13 7L13 5L12 5L12 7L11 7L11 5L10 5L10 4L12 4L12 3L11 3L11 1L10 1L10 3L9 3L9 0ZM12 0L12 2L15 2L15 3L13 3L13 4L14 4L14 5L15 5L15 3L16 3L16 2L15 2L15 1L14 1L14 0ZM16 0L16 1L18 1L18 0ZM21 1L21 2L20 2L20 4L19 4L19 5L20 5L20 6L19 6L19 10L20 10L20 13L19 13L19 14L18 14L18 13L16 13L16 12L17 12L17 11L18 11L18 9L17 9L17 10L16 10L16 11L12 11L12 10L11 10L11 11L12 11L12 12L15 12L15 13L13 13L13 15L12 15L12 13L11 13L11 12L10 12L10 11L9 11L9 12L10 12L10 13L6 13L6 14L5 14L5 15L6 15L6 16L8 16L8 17L9 17L9 18L10 18L10 19L9 19L9 20L7 20L7 19L5 19L5 18L7 18L7 17L5 17L5 18L4 18L4 19L3 19L3 20L5 20L5 21L4 21L4 22L3 22L3 23L4 23L4 22L7 22L7 23L5 23L5 24L4 24L4 25L3 25L3 26L10 26L10 25L9 25L9 24L10 24L10 23L9 23L9 24L8 24L8 25L6 25L6 24L7 24L7 23L8 23L8 21L9 21L9 22L11 22L11 25L12 25L12 26L13 26L13 27L12 27L12 28L11 28L11 27L10 27L10 28L11 28L11 29L12 29L12 28L14 28L14 29L13 29L13 30L12 30L12 32L13 32L13 34L14 34L14 32L15 32L15 31L16 31L16 32L18 32L18 31L19 31L19 29L17 29L17 28L18 28L18 23L19 23L19 21L18 21L18 20L19 20L19 19L18 19L18 18L16 18L16 17L17 17L17 16L18 16L18 17L20 17L20 16L19 16L19 15L21 15L21 16L22 16L22 15L21 15L21 13L22 13L22 14L23 14L23 13L24 13L24 12L26 12L26 14L25 14L25 15L23 15L23 17L22 17L22 19L21 19L21 18L20 18L20 19L21 19L21 22L20 22L20 23L21 23L21 25L23 25L23 26L20 26L20 25L19 25L19 26L20 26L20 27L22 27L22 28L20 28L20 29L24 29L24 30L23 30L23 31L22 31L22 33L23 33L23 34L26 34L26 35L24 35L24 36L26 36L26 35L27 35L27 34L28 34L28 35L31 35L31 34L32 34L32 33L31 33L31 34L28 34L28 33L24 33L24 32L23 32L23 31L25 31L25 32L27 32L27 31L28 31L28 27L30 27L30 28L35 28L35 27L36 27L36 26L35 26L35 25L36 25L36 24L35 24L35 23L36 23L36 22L35 22L35 21L32 21L32 20L31 20L31 21L30 21L30 20L29 20L29 21L23 21L23 20L24 20L24 19L25 19L25 20L26 20L26 17L27 17L27 18L28 18L28 17L30 17L30 18L32 18L32 19L33 19L33 20L36 20L36 19L33 19L33 17L30 17L30 15L28 15L28 16L26 16L26 14L28 14L28 13L30 13L30 14L31 14L31 13L32 13L32 12L31 12L31 11L32 11L32 10L31 10L31 11L30 11L30 9L28 9L28 10L29 10L29 11L28 11L28 13L27 13L27 12L26 12L26 11L27 11L27 9L26 9L26 8L27 8L27 7L28 7L28 6L27 6L27 7L26 7L26 6L25 6L25 3L23 3L23 2L22 2L22 1ZM21 2L21 3L22 3L22 4L20 4L20 5L21 5L21 6L20 6L20 7L21 7L21 6L22 6L22 8L20 8L20 10L21 10L21 11L22 11L22 13L23 13L23 11L24 11L24 9L23 9L23 8L26 8L26 7L25 7L25 6L24 6L24 7L23 7L23 6L22 6L22 5L23 5L23 3L22 3L22 2ZM26 3L26 4L27 4L27 3ZM16 4L16 5L17 5L17 4ZM9 5L9 7L10 7L10 5ZM6 8L6 9L7 9L7 8ZM21 9L21 10L22 10L22 11L23 11L23 10L22 10L22 9ZM25 9L25 10L26 10L26 9ZM34 9L34 10L33 10L33 11L34 11L34 12L35 12L35 11L36 11L36 10L35 10L35 9ZM29 11L29 12L30 12L30 13L31 13L31 12L30 12L30 11ZM2 13L2 14L3 14L3 13ZM10 13L10 15L9 15L9 14L6 14L6 15L9 15L9 16L10 16L10 15L11 15L11 13ZM17 14L17 15L14 15L14 16L13 16L13 18L11 18L11 19L10 19L10 20L11 20L11 22L13 22L13 23L12 23L12 24L14 24L14 25L15 25L15 26L16 26L16 27L14 27L14 28L16 28L16 27L17 27L17 25L15 25L15 24L14 24L14 21L15 21L15 22L16 22L16 21L15 21L15 20L16 20L16 18L15 18L15 17L16 17L16 16L17 16L17 15L18 15L18 14ZM14 16L14 17L15 17L15 16ZM25 16L25 17L23 17L23 19L24 19L24 18L25 18L25 17L26 17L26 16ZM14 19L14 20L13 20L13 21L14 21L14 20L15 20L15 19ZM6 20L6 21L7 21L7 20ZM29 21L29 22L30 22L30 23L29 23L29 24L30 24L30 25L28 25L28 24L27 24L27 23L28 23L28 22L27 22L27 23L26 23L26 24L27 24L27 25L24 25L24 26L26 26L26 28L25 28L25 27L24 27L24 29L25 29L25 30L27 30L27 29L26 29L26 28L27 28L27 26L30 26L30 27L32 27L32 26L31 26L31 22L32 22L32 23L33 23L33 25L35 25L35 24L34 24L34 23L33 23L33 22L32 22L32 21L31 21L31 22L30 22L30 21ZM22 22L22 24L23 24L23 23L24 23L24 22ZM0 25L0 29L1 29L1 25ZM33 26L33 27L35 27L35 26ZM16 29L16 30L17 30L17 31L18 31L18 30L17 30L17 29ZM29 29L29 32L32 32L32 29ZM14 30L14 31L13 31L13 32L14 32L14 31L15 31L15 30ZM30 30L30 31L31 31L31 30ZM33 31L33 32L35 32L35 31ZM19 32L19 33L21 33L21 32ZM9 33L9 34L10 34L10 35L12 35L12 36L13 36L13 35L12 35L12 34L10 34L10 33ZM0 0L0 7L7 7L7 0ZM1 1L1 6L6 6L6 1ZM2 2L2 5L5 5L5 2ZM30 0L30 7L37 7L37 0ZM31 1L31 6L36 6L36 1ZM32 2L32 5L35 5L35 2ZM0 30L0 37L7 37L7 30ZM1 31L1 36L6 36L6 31ZM2 32L2 35L5 35L5 32Z" fill="#000000"/></g></g></svg>
