<?xml version="1.0" encoding="UTF-8"?>
<svg xmlns="http://www.w3.org/2000/svg" version="1.1" width="300" height="300" viewBox="0 0 300 300"><rect x="0" y="0" width="300" height="300" fill="#ffffff"/><g transform="scale(8.108)"><g transform="translate(0,0)"><path fill-rule="evenodd" d="M9 0L9 1L8 1L8 2L9 2L9 1L10 1L10 4L9 4L9 5L8 5L8 8L4 8L4 9L5 9L5 10L4 10L4 11L3 11L3 10L2 10L2 9L0 9L0 10L1 10L1 11L0 11L0 16L1 16L1 14L4 14L4 15L5 15L5 17L3 17L3 15L2 15L2 17L1 17L1 18L2 18L2 17L3 17L3 18L4 18L4 19L3 19L3 21L1 21L1 19L0 19L0 21L1 21L1 24L0 24L0 26L1 26L1 25L2 25L2 24L3 24L3 25L5 25L5 26L6 26L6 27L7 27L7 26L6 26L6 25L8 25L8 23L10 23L10 22L8 22L8 23L7 23L7 22L6 22L6 21L7 21L7 20L6 20L6 19L8 19L8 17L9 17L9 19L10 19L10 17L11 17L11 20L8 20L8 21L11 21L11 23L12 23L12 25L9 25L9 26L8 26L8 28L9 28L9 29L8 29L8 33L9 33L9 34L10 34L10 32L11 32L11 36L12 36L12 37L13 37L13 36L14 36L14 37L18 37L18 36L19 36L19 37L20 37L20 36L21 36L21 37L22 37L22 36L23 36L23 37L24 37L24 36L25 36L25 35L26 35L26 37L28 37L28 33L30 33L30 35L29 35L29 37L30 37L30 35L31 35L31 36L32 36L32 33L33 33L33 30L34 30L34 33L35 33L35 32L36 32L36 33L37 33L37 32L36 32L36 29L37 29L37 28L35 28L35 27L36 27L36 25L37 25L37 24L36 24L36 25L35 25L35 23L36 23L36 21L37 21L37 20L36 20L36 17L35 17L35 16L36 16L36 13L37 13L37 12L36 12L36 8L35 8L35 10L34 10L34 13L31 13L31 12L33 12L33 10L32 10L32 11L31 11L31 12L30 12L30 11L28 11L28 10L27 10L27 9L26 9L26 7L27 7L27 6L26 6L26 7L25 7L25 6L24 6L24 7L23 7L23 5L25 5L25 4L26 4L26 3L25 3L25 2L27 2L27 5L28 5L28 2L27 2L27 1L28 1L28 0L26 0L26 1L25 1L25 0L24 0L24 4L22 4L22 5L21 5L21 2L20 2L20 3L19 3L19 5L20 5L20 8L19 8L19 6L18 6L18 1L19 1L19 0L15 0L15 4L16 4L16 1L17 1L17 6L16 6L16 5L14 5L14 4L13 4L13 2L14 2L14 0ZM20 0L20 1L21 1L21 0ZM22 0L22 2L23 2L23 0ZM11 1L11 3L12 3L12 1ZM10 4L10 5L9 5L9 7L10 7L10 5L12 5L12 6L11 6L11 7L12 7L12 8L10 8L10 9L9 9L9 8L8 8L8 10L10 10L10 12L12 12L12 13L14 13L14 14L15 14L15 15L14 15L14 18L13 18L13 17L12 17L12 20L13 20L13 21L12 21L12 23L13 23L13 24L14 24L14 25L13 25L13 27L12 27L12 26L11 26L11 28L10 28L10 26L9 26L9 28L10 28L10 30L12 30L12 29L13 29L13 30L14 30L14 29L13 29L13 28L16 28L16 31L17 31L17 30L18 30L18 34L17 34L17 33L14 33L14 31L13 31L13 32L12 32L12 31L11 31L11 32L12 32L12 33L14 33L14 34L17 34L17 35L14 35L14 36L18 36L18 34L19 34L19 33L20 33L20 32L21 32L21 31L23 31L23 30L22 30L22 29L24 29L24 30L25 30L25 31L24 31L24 32L22 32L22 33L23 33L23 34L22 34L22 35L23 35L23 36L24 36L24 35L25 35L25 33L26 33L26 34L27 34L27 33L28 33L28 32L27 32L27 31L28 31L28 30L27 30L27 29L26 29L26 26L27 26L27 28L29 28L29 27L30 27L30 28L31 28L31 26L29 26L29 27L28 27L28 25L30 25L30 24L33 24L33 25L34 25L34 27L35 27L35 25L34 25L34 24L33 24L33 23L34 23L34 22L35 22L35 21L34 21L34 22L33 22L33 23L32 23L32 22L31 22L31 21L33 21L33 20L31 20L31 17L33 17L33 18L32 18L32 19L33 19L33 18L34 18L34 19L35 19L35 17L33 17L33 15L34 15L34 14L35 14L35 13L36 13L36 12L35 12L35 13L34 13L34 14L33 14L33 15L32 15L32 14L31 14L31 13L30 13L30 12L29 12L29 13L28 13L28 12L27 12L27 11L26 11L26 10L25 10L25 7L24 7L24 8L23 8L23 7L22 7L22 6L21 6L21 7L22 7L22 9L21 9L21 8L20 8L20 10L19 10L19 12L18 12L18 11L14 11L14 9L15 9L15 10L16 10L16 9L17 9L17 8L16 8L16 6L15 6L15 8L13 8L13 7L14 7L14 6L13 6L13 4ZM12 6L12 7L13 7L13 6ZM17 6L17 7L18 7L18 6ZM28 6L28 9L29 9L29 6ZM12 8L12 9L10 9L10 10L12 10L12 11L13 11L13 12L14 12L14 13L15 13L15 12L14 12L14 11L13 11L13 8ZM18 8L18 9L19 9L19 8ZM30 8L30 10L31 10L31 9L32 9L32 8ZM6 9L6 10L7 10L7 9ZM23 9L23 10L21 10L21 11L20 11L20 12L19 12L19 14L18 14L18 12L16 12L16 13L17 13L17 14L18 14L18 17L19 17L19 19L18 19L18 18L17 18L17 16L16 16L16 15L15 15L15 18L16 18L16 20L17 20L17 21L14 21L14 24L17 24L17 25L18 25L18 26L17 26L17 27L19 27L19 28L17 28L17 29L18 29L18 30L19 30L19 31L21 31L21 29L20 29L20 28L21 28L21 27L19 27L19 25L20 25L20 26L21 26L21 25L22 25L22 28L24 28L24 29L25 29L25 28L24 28L24 27L25 27L25 25L27 25L27 24L28 24L28 21L29 21L29 23L30 23L30 21L31 21L31 20L30 20L30 19L29 19L29 18L30 18L30 17L31 17L31 16L32 16L32 15L31 15L31 16L30 16L30 15L29 15L29 14L30 14L30 13L29 13L29 14L28 14L28 13L27 13L27 12L26 12L26 17L27 17L27 19L26 19L26 21L24 21L24 23L23 23L23 24L22 24L22 23L21 23L21 21L23 21L23 18L22 18L22 15L21 15L21 14L23 14L23 13L24 13L24 12L25 12L25 10L24 10L24 9ZM4 11L4 12L5 12L5 13L4 13L4 14L7 14L7 15L6 15L6 16L7 16L7 17L5 17L5 18L7 18L7 17L8 17L8 16L7 16L7 15L8 15L8 14L9 14L9 16L13 16L13 14L11 14L11 13L10 13L10 14L9 14L9 11L6 11L6 12L5 12L5 11ZM21 11L21 12L22 12L22 13L23 13L23 11ZM6 12L6 13L8 13L8 12ZM20 13L20 14L21 14L21 13ZM23 15L23 16L24 16L24 17L25 17L25 16L24 16L24 15ZM29 16L29 17L28 17L28 18L29 18L29 17L30 17L30 16ZM20 17L20 18L21 18L21 17ZM14 19L14 20L15 20L15 19ZM19 19L19 21L17 21L17 22L15 22L15 23L17 23L17 22L18 22L18 23L19 23L19 24L18 24L18 25L19 25L19 24L20 24L20 25L21 25L21 23L20 23L20 22L19 22L19 21L21 21L21 20L22 20L22 19L21 19L21 20L20 20L20 19ZM24 19L24 20L25 20L25 19ZM28 19L28 20L27 20L27 21L26 21L26 22L25 22L25 24L23 24L23 26L24 26L24 25L25 25L25 24L26 24L26 23L27 23L27 21L28 21L28 20L29 20L29 21L30 21L30 20L29 20L29 19ZM3 22L3 23L4 23L4 24L5 24L5 25L6 25L6 24L7 24L7 23L6 23L6 22L5 22L5 23L4 23L4 22ZM5 23L5 24L6 24L6 23ZM14 25L14 26L15 26L15 25ZM2 26L2 27L3 27L3 29L7 29L7 28L5 28L5 27L3 27L3 26ZM32 27L32 28L33 28L33 27ZM0 28L0 29L2 29L2 28ZM19 29L19 30L20 30L20 29ZM29 29L29 32L32 32L32 29ZM34 29L34 30L35 30L35 29ZM30 30L30 31L31 31L31 30ZM9 31L9 32L10 32L10 31ZM24 32L24 33L25 33L25 32ZM26 32L26 33L27 33L27 32ZM12 34L12 35L13 35L13 34ZM20 34L20 35L19 35L19 36L20 36L20 35L21 35L21 34ZM35 34L35 35L33 35L33 36L34 36L34 37L37 37L37 36L36 36L36 34ZM9 35L9 37L10 37L10 35ZM0 0L0 7L7 7L7 0ZM1 1L1 6L6 6L6 1ZM2 2L2 5L5 5L5 2ZM30 0L30 7L37 7L37 0ZM31 1L31 6L36 6L36 1ZM32 2L32 5L35 5L35 2ZM0 30L0 37L7 37L7 30ZM1 31L1 36L6 36L6 31ZM2 32L2 35L5 35L5 32Z" fill="#000000"/></g></g></svg>
