<?xml version="1.0" encoding="UTF-8"?>
<svg xmlns="http://www.w3.org/2000/svg" version="1.1" width="300" height="300" viewBox="0 0 300 300"><rect x="0" y="0" width="300" height="300" fill="#ffffff"/><g transform="scale(8.108)"><g transform="translate(0,0)"><path fill-rule="evenodd" d="M8 0L8 3L9 3L9 4L11 4L11 5L8 5L8 9L7 9L7 8L6 8L6 9L7 9L7 10L6 10L6 11L4 11L4 12L3 12L3 11L2 11L2 10L4 10L4 9L5 9L5 8L2 8L2 9L1 9L1 11L2 11L2 12L0 12L0 14L1 14L1 16L0 16L0 21L1 21L1 22L0 22L0 24L1 24L1 25L0 25L0 29L1 29L1 25L2 25L2 23L3 23L3 22L6 22L6 23L7 23L7 22L6 22L6 21L8 21L8 20L9 20L9 23L8 23L8 24L6 24L6 25L8 25L8 24L9 24L9 27L8 27L8 30L9 30L9 29L10 29L10 30L11 30L11 31L10 31L10 33L11 33L11 34L9 34L9 32L8 32L8 35L11 35L11 34L13 34L13 33L14 33L14 32L13 32L13 33L12 33L12 32L11 32L11 31L12 31L12 30L14 30L14 31L15 31L15 32L16 32L16 30L14 30L14 28L12 28L12 30L11 30L11 29L10 29L10 26L11 26L11 27L13 27L13 26L12 26L12 24L11 24L11 22L12 22L12 23L13 23L13 25L14 25L14 22L16 22L16 25L17 25L17 22L18 22L18 23L19 23L19 24L20 24L20 22L18 22L18 21L20 21L20 19L21 19L21 18L22 18L22 19L23 19L23 20L22 20L22 21L21 21L21 25L22 25L22 23L24 23L24 24L25 24L25 23L24 23L24 22L22 22L22 21L23 21L23 20L25 20L25 21L26 21L26 22L27 22L27 23L26 23L26 24L27 24L27 25L24 25L24 26L26 26L26 28L25 28L25 27L24 27L24 28L25 28L25 29L23 29L23 30L25 30L25 29L27 29L27 30L28 30L28 32L27 32L27 31L26 31L26 32L24 32L24 33L26 33L26 36L25 36L25 37L26 37L26 36L29 36L29 35L30 35L30 37L37 37L37 34L36 34L36 36L34 36L34 35L33 35L33 36L32 36L32 35L30 35L30 34L34 34L34 33L37 33L37 30L36 30L36 29L35 29L35 28L32 28L32 26L31 26L31 24L32 24L32 23L31 23L31 22L30 22L30 21L33 21L33 20L34 20L34 21L37 21L37 18L35 18L35 16L37 16L37 14L36 14L36 13L35 13L35 12L37 12L37 10L36 10L36 9L37 9L37 8L34 8L34 9L32 9L32 8L29 8L29 6L28 6L28 5L27 5L27 4L29 4L29 2L28 2L28 1L25 1L25 0L23 0L23 1L24 1L24 2L20 2L20 5L19 5L19 0L18 0L18 1L17 1L17 3L16 3L16 2L15 2L15 1L14 1L14 0L13 0L13 2L15 2L15 4L14 4L14 3L12 3L12 4L11 4L11 3L9 3L9 2L10 2L10 1L9 1L9 0ZM21 0L21 1L22 1L22 0ZM24 2L24 3L21 3L21 4L24 4L24 5L20 5L20 6L19 6L19 7L20 7L20 8L21 8L21 7L22 7L22 8L24 8L24 9L25 9L25 10L24 10L24 11L25 11L25 12L26 12L26 14L25 14L25 15L24 15L24 14L23 14L23 13L24 13L24 12L23 12L23 13L22 13L22 12L21 12L21 11L20 11L20 9L19 9L19 8L16 8L16 9L13 9L13 7L14 7L14 8L15 8L15 7L16 7L16 6L15 6L15 5L14 5L14 4L13 4L13 5L12 5L12 6L11 6L11 7L10 7L10 6L9 6L9 7L10 7L10 9L8 9L8 11L6 11L6 12L7 12L7 13L4 13L4 15L3 15L3 14L2 14L2 15L3 15L3 16L1 16L1 18L2 18L2 20L1 20L1 21L3 21L3 20L4 20L4 21L6 21L6 20L7 20L7 19L8 19L8 18L9 18L9 20L10 20L10 22L11 22L11 19L12 19L12 20L13 20L13 21L12 21L12 22L13 22L13 21L16 21L16 22L17 22L17 20L19 20L19 19L18 19L18 18L21 18L21 17L23 17L23 16L24 16L24 19L25 19L25 20L26 20L26 21L27 21L27 22L28 22L28 23L27 23L27 24L28 24L28 25L30 25L30 24L28 24L28 23L30 23L30 22L28 22L28 21L30 21L30 20L31 20L31 19L30 19L30 18L32 18L32 19L34 19L34 20L36 20L36 19L35 19L35 18L33 18L33 17L34 17L34 16L35 16L35 15L36 15L36 14L35 14L35 13L34 13L34 12L35 12L35 11L36 11L36 10L35 10L35 9L34 9L34 10L33 10L33 11L34 11L34 12L33 12L33 13L27 13L27 9L26 9L26 8L27 8L27 7L28 7L28 6L27 6L27 7L26 7L26 6L25 6L25 3L26 3L26 4L27 4L27 2ZM17 3L17 4L16 4L16 5L18 5L18 3ZM13 5L13 6L12 6L12 7L11 7L11 8L12 8L12 7L13 7L13 6L14 6L14 7L15 7L15 6L14 6L14 5ZM17 6L17 7L18 7L18 6ZM20 6L20 7L21 7L21 6ZM22 6L22 7L23 7L23 6ZM24 6L24 8L26 8L26 7L25 7L25 6ZM18 9L18 10L16 10L16 11L17 11L17 13L16 13L16 14L15 14L15 15L13 15L13 14L14 14L14 13L15 13L15 10L13 10L13 12L11 12L11 11L12 11L12 10L11 10L11 11L10 11L10 12L11 12L11 13L13 13L13 14L12 14L12 15L11 15L11 16L10 16L10 18L12 18L12 19L15 19L15 20L16 20L16 18L18 18L18 17L19 17L19 16L20 16L20 17L21 17L21 16L23 16L23 15L21 15L21 16L20 16L20 14L22 14L22 13L21 13L21 12L20 12L20 14L19 14L19 16L18 16L18 17L17 17L17 16L16 16L16 14L17 14L17 15L18 15L18 13L19 13L19 12L18 12L18 10L19 10L19 9ZM22 9L22 11L23 11L23 9ZM28 9L28 10L29 10L29 11L28 11L28 12L29 12L29 11L32 11L32 10L30 10L30 9ZM34 10L34 11L35 11L35 10ZM8 11L8 13L7 13L7 14L5 14L5 15L4 15L4 16L3 16L3 17L2 17L2 18L4 18L4 19L5 19L5 20L6 20L6 19L7 19L7 18L6 18L6 19L5 19L5 17L8 17L8 16L9 16L9 15L10 15L10 14L9 14L9 11ZM2 12L2 13L3 13L3 12ZM13 12L13 13L14 13L14 12ZM26 14L26 16L25 16L25 17L29 17L29 18L30 18L30 17L33 17L33 16L34 16L34 14L32 14L32 15L33 15L33 16L31 16L31 14ZM5 15L5 16L8 16L8 15ZM27 15L27 16L29 16L29 17L30 17L30 15ZM11 16L11 17L12 17L12 16ZM13 16L13 17L14 17L14 16ZM15 16L15 17L16 17L16 16ZM25 18L25 19L26 19L26 18ZM27 18L27 19L28 19L28 20L27 20L27 21L28 21L28 20L29 20L29 19L28 19L28 18ZM33 22L33 27L34 27L34 26L36 26L36 28L37 28L37 26L36 26L36 25L37 25L37 24L34 24L34 22ZM35 22L35 23L37 23L37 22ZM9 23L9 24L10 24L10 23ZM3 24L3 25L4 25L4 24ZM18 25L18 26L15 26L15 29L17 29L17 28L18 28L18 29L20 29L20 28L19 28L19 26L20 26L20 25ZM2 26L2 28L3 28L3 26ZM4 26L4 29L5 29L5 28L6 28L6 29L7 29L7 28L6 28L6 27L7 27L7 26ZM27 26L27 29L28 29L28 27L30 27L30 28L31 28L31 27L30 27L30 26ZM22 27L22 28L23 28L23 27ZM21 29L21 30L19 30L19 31L18 31L18 33L17 33L17 34L16 34L16 33L15 33L15 35L14 35L14 37L16 37L16 35L17 35L17 34L19 34L19 35L18 35L18 36L17 36L17 37L20 37L20 36L19 36L19 35L20 35L20 33L19 33L19 31L22 31L22 32L21 32L21 34L22 34L22 37L24 37L24 35L25 35L25 34L23 34L23 31L22 31L22 29ZM29 29L29 32L32 32L32 29ZM34 29L34 30L35 30L35 31L34 31L34 32L33 32L33 33L34 33L34 32L35 32L35 31L36 31L36 30L35 30L35 29ZM30 30L30 31L31 31L31 30ZM26 32L26 33L27 33L27 32ZM28 33L28 34L27 34L27 35L29 35L29 34L30 34L30 33ZM12 35L12 36L10 36L10 37L13 37L13 35ZM0 0L0 7L7 7L7 0ZM1 1L1 6L6 6L6 1ZM2 2L2 5L5 5L5 2ZM30 0L30 7L37 7L37 0ZM31 1L31 6L36 6L36 1ZM32 2L32 5L35 5L35 2ZM0 30L0 37L7 37L7 30ZM1 31L1 36L6 36L6 31ZM2 32L2 35L5 35L5 32Z" fill="#000000"/></g></g></svg>
