<?xml version="1.0" encoding="UTF-8"?>
<svg xmlns="http://www.w3.org/2000/svg" version="1.1" width="300" height="300" viewBox="0 0 300 300"><rect x="0" y="0" width="300" height="300" fill="#ffffff"/><g transform="scale(8.108)"><g transform="translate(0,0)"><path fill-rule="evenodd" d="M8 0L8 3L9 3L9 5L8 5L8 9L7 9L7 8L6 8L6 9L7 9L7 10L4 10L4 9L5 9L5 8L2 8L2 9L0 9L0 11L1 11L1 10L2 10L2 11L3 11L3 10L4 10L4 11L7 11L7 12L6 12L6 13L5 13L5 12L4 12L4 15L3 15L3 12L2 12L2 13L1 13L1 12L0 12L0 13L1 13L1 15L0 15L0 18L1 18L1 19L0 19L0 20L2 20L2 18L3 18L3 17L4 17L4 19L3 19L3 22L1 22L1 21L0 21L0 23L2 23L2 25L3 25L3 24L4 24L4 25L5 25L5 26L3 26L3 27L2 27L2 29L7 29L7 28L6 28L6 27L8 27L8 30L9 30L9 29L10 29L10 32L8 32L8 35L10 35L10 36L9 36L9 37L11 37L11 35L10 35L10 33L11 33L11 34L12 34L12 37L13 37L13 36L14 36L14 35L13 35L13 33L12 33L12 31L13 31L13 32L14 32L14 30L15 30L15 33L14 33L14 34L15 34L15 35L16 35L16 33L17 33L17 32L18 32L18 33L19 33L19 34L17 34L17 35L20 35L20 36L19 36L19 37L22 37L22 36L23 36L23 37L28 37L28 36L29 36L29 35L28 35L28 36L27 36L27 34L26 34L26 36L24 36L24 35L25 35L25 34L22 34L22 35L20 35L20 34L21 34L21 33L19 33L19 32L20 32L20 29L21 29L21 32L22 32L22 33L23 33L23 32L22 32L22 29L21 29L21 28L23 28L23 27L21 27L21 26L23 26L23 25L24 25L24 26L26 26L26 28L25 28L25 27L24 27L24 29L23 29L23 30L24 30L24 29L25 29L25 30L27 30L27 29L26 29L26 28L27 28L27 26L29 26L29 27L28 27L28 31L27 31L27 32L24 32L24 33L29 33L29 34L33 34L33 36L32 36L32 35L31 35L31 36L30 36L30 37L37 37L37 34L36 34L36 36L34 36L34 35L35 35L35 34L34 34L34 33L35 33L35 32L36 32L36 33L37 33L37 30L36 30L36 29L37 29L37 28L32 28L32 27L33 27L33 26L34 26L34 25L35 25L35 26L36 26L36 27L37 27L37 26L36 26L36 25L37 25L37 24L34 24L34 22L32 22L32 21L35 21L35 22L36 22L36 23L37 23L37 22L36 22L36 21L37 21L37 18L35 18L35 19L36 19L36 20L33 20L33 19L32 19L32 18L30 18L30 17L37 17L37 16L33 16L33 15L32 15L32 14L29 14L29 13L33 13L33 14L34 14L34 13L35 13L35 12L33 12L33 11L36 11L36 13L37 13L37 10L34 10L34 9L37 9L37 8L34 8L34 9L32 9L32 8L29 8L29 6L28 6L28 5L29 5L29 4L28 4L28 3L27 3L27 2L28 2L28 1L26 1L26 3L25 3L25 4L24 4L24 5L22 5L22 8L24 8L24 7L25 7L25 8L26 8L26 9L27 9L27 10L26 10L26 12L25 12L25 13L23 13L23 11L24 11L24 9L21 9L21 11L22 11L22 12L20 12L20 8L21 8L21 4L23 4L23 2L25 2L25 0L24 0L24 1L21 1L21 0L19 0L19 1L17 1L17 2L18 2L18 7L19 7L19 8L17 8L17 10L16 10L16 11L15 11L15 10L13 10L13 9L12 9L12 8L11 8L11 4L12 4L12 3L11 3L11 2L14 2L14 3L13 3L13 5L15 5L15 6L14 6L14 8L16 8L16 7L17 7L17 5L15 5L15 4L14 4L14 3L15 3L15 2L14 2L14 1L15 1L15 0L14 0L14 1L13 1L13 0L12 0L12 1L10 1L10 0ZM9 1L9 3L10 3L10 4L11 4L11 3L10 3L10 1ZM20 1L20 2L19 2L19 4L20 4L20 3L21 3L21 1ZM16 3L16 4L17 4L17 3ZM26 4L26 5L28 5L28 4ZM24 5L24 6L23 6L23 7L24 7L24 6L25 6L25 7L26 7L26 8L27 8L27 7L28 7L28 6L27 6L27 7L26 7L26 6L25 6L25 5ZM9 6L9 10L10 10L10 9L11 9L11 8L10 8L10 6ZM12 6L12 7L13 7L13 6ZM15 6L15 7L16 7L16 6ZM19 6L19 7L20 7L20 6ZM18 9L18 10L17 10L17 11L16 11L16 12L18 12L18 13L16 13L16 14L15 14L15 13L14 13L14 14L13 14L13 12L11 12L11 13L12 13L12 14L10 14L10 15L9 15L9 14L7 14L7 13L8 13L8 12L10 12L10 11L8 11L8 10L7 10L7 11L8 11L8 12L7 12L7 13L6 13L6 14L5 14L5 15L4 15L4 17L5 17L5 19L6 19L6 20L7 20L7 21L6 21L6 22L7 22L7 23L5 23L5 24L7 24L7 25L6 25L6 26L5 26L5 27L3 27L3 28L5 28L5 27L6 27L6 26L7 26L7 25L8 25L8 27L10 27L10 28L12 28L12 30L13 30L13 28L12 28L12 27L10 27L10 26L11 26L11 25L12 25L12 26L13 26L13 27L15 27L15 28L16 28L16 27L18 27L18 28L17 28L17 29L16 29L16 30L18 30L18 29L19 29L19 27L18 27L18 26L19 26L19 24L18 24L18 26L16 26L16 25L17 25L17 23L18 23L18 22L20 22L20 23L21 23L21 20L22 20L22 19L20 19L20 20L18 20L18 18L20 18L20 17L23 17L23 19L24 19L24 20L26 20L26 21L25 21L25 23L24 23L24 25L27 25L27 24L28 24L28 25L30 25L30 24L29 24L29 23L30 23L30 22L31 22L31 23L32 23L32 24L31 24L31 27L32 27L32 26L33 26L33 23L32 23L32 22L31 22L31 21L32 21L32 20L31 20L31 21L29 21L29 19L30 19L30 18L28 18L28 17L30 17L30 15L27 15L27 16L26 16L26 14L28 14L28 13L29 13L29 11L30 11L30 9L28 9L28 10L29 10L29 11L28 11L28 13L27 13L27 12L26 12L26 14L25 14L25 16L26 16L26 17L23 17L23 16L24 16L24 15L23 15L23 13L22 13L22 14L21 14L21 13L20 13L20 14L21 14L21 16L20 16L20 17L18 17L18 18L17 18L17 17L14 17L14 16L15 16L15 15L16 15L16 16L18 16L18 13L19 13L19 12L18 12L18 11L19 11L19 9ZM11 10L11 11L13 11L13 10ZM22 10L22 11L23 11L23 10ZM31 10L31 11L32 11L32 10ZM14 11L14 12L15 12L15 11ZM6 14L6 15L5 15L5 17L7 17L7 18L6 18L6 19L8 19L8 20L9 20L9 19L10 19L10 21L8 21L8 23L12 23L12 25L14 25L14 26L15 26L15 27L16 27L16 26L15 26L15 25L16 25L16 21L15 21L15 24L14 24L14 23L12 23L12 20L13 20L13 22L14 22L14 20L16 20L16 18L12 18L12 20L11 20L11 18L9 18L9 17L12 17L12 15L13 15L13 14L12 14L12 15L11 15L11 16L9 16L9 15L7 15L7 14ZM16 14L16 15L17 15L17 14ZM35 14L35 15L37 15L37 14ZM1 15L1 17L2 17L2 16L3 16L3 15ZM6 15L6 16L7 16L7 17L9 17L9 16L7 16L7 15ZM22 15L22 16L23 16L23 15ZM31 15L31 16L32 16L32 15ZM27 16L27 17L26 17L26 18L25 18L25 19L27 19L27 21L26 21L26 22L27 22L27 23L26 23L26 24L27 24L27 23L29 23L29 21L28 21L28 18L27 18L27 17L28 17L28 16ZM8 18L8 19L9 19L9 18ZM13 19L13 20L14 20L14 19ZM17 20L17 21L18 21L18 20ZM23 21L23 22L22 22L22 25L23 25L23 22L24 22L24 21ZM27 21L27 22L28 22L28 21ZM0 24L0 29L1 29L1 24ZM8 24L8 25L9 25L9 26L10 26L10 25L11 25L11 24ZM20 27L20 28L21 28L21 27ZM29 29L29 32L32 32L32 29ZM34 29L34 30L33 30L33 31L34 31L34 32L33 32L33 33L34 33L34 32L35 32L35 31L36 31L36 30L35 30L35 29ZM30 30L30 31L31 31L31 30ZM16 31L16 32L17 32L17 31ZM18 31L18 32L19 32L19 31ZM15 36L15 37L16 37L16 36ZM17 36L17 37L18 37L18 36ZM0 0L0 7L7 7L7 0ZM1 1L1 6L6 6L6 1ZM2 2L2 5L5 5L5 2ZM30 0L30 7L37 7L37 0ZM31 1L31 6L36 6L36 1ZM32 2L32 5L35 5L35 2ZM0 30L0 37L7 37L7 30ZM1 31L1 36L6 36L6 31ZM2 32L2 35L5 35L5 32Z" fill="#000000"/></g></g></svg>
