<?xml version="1.0" encoding="UTF-8"?>
<svg xmlns="http://www.w3.org/2000/svg" version="1.1" width="300" height="300" viewBox="0 0 300 300"><rect x="0" y="0" width="300" height="300" fill="#ffffff"/><g transform="scale(8.108)"><g transform="translate(0,0)"><path fill-rule="evenodd" d="M8 0L8 3L9 3L9 5L8 5L8 9L7 9L7 8L6 8L6 9L7 9L7 10L5 10L5 8L2 8L2 9L1 9L1 10L3 10L3 9L4 9L4 11L3 11L3 12L2 12L2 11L0 11L0 14L1 14L1 13L3 13L3 16L2 16L2 15L1 15L1 16L2 16L2 17L0 17L0 18L2 18L2 20L0 20L0 21L2 21L2 22L0 22L0 29L1 29L1 26L2 26L2 27L4 27L4 26L5 26L5 28L6 28L6 29L7 29L7 28L6 28L6 27L7 27L7 26L5 26L5 25L8 25L8 24L9 24L9 25L10 25L10 24L9 24L9 23L11 23L11 26L12 26L12 25L17 25L17 24L18 24L18 27L17 27L17 28L16 28L16 26L15 26L15 27L14 27L14 26L13 26L13 27L12 27L12 29L13 29L13 30L14 30L14 31L12 31L12 30L11 30L11 29L10 29L10 28L11 28L11 27L10 27L10 26L8 26L8 28L9 28L9 29L8 29L8 30L9 30L9 31L10 31L10 33L9 33L9 32L8 32L8 35L9 35L9 34L13 34L13 35L11 35L11 36L9 36L9 37L11 37L11 36L13 36L13 37L18 37L18 36L20 36L20 37L21 37L21 35L22 35L22 36L23 36L23 37L24 37L24 35L25 35L25 34L21 34L21 35L18 35L18 36L16 36L16 35L15 35L15 33L16 33L16 34L20 34L20 33L16 33L16 31L15 31L15 30L17 30L17 31L18 31L18 32L22 32L22 31L23 31L23 30L27 30L27 29L26 29L26 28L27 28L27 26L30 26L30 28L29 28L29 27L28 27L28 31L27 31L27 33L26 33L26 32L25 32L25 31L24 31L24 33L26 33L26 36L25 36L25 37L26 37L26 36L29 36L29 37L37 37L37 34L36 34L36 36L34 36L34 35L35 35L35 34L33 34L33 33L37 33L37 30L36 30L36 29L37 29L37 28L34 28L34 27L37 27L37 26L33 26L33 28L31 28L31 24L32 24L32 23L31 23L31 22L30 22L30 21L33 21L33 22L35 22L35 23L37 23L37 22L35 22L35 21L37 21L37 18L36 18L36 17L35 17L35 16L37 16L37 14L36 14L36 13L37 13L37 12L34 12L34 11L35 11L35 10L36 10L36 11L37 11L37 10L36 10L36 9L37 9L37 8L34 8L34 9L35 9L35 10L33 10L33 9L32 9L32 8L26 8L26 7L27 7L27 6L28 6L28 7L29 7L29 6L28 6L28 5L29 5L29 4L28 4L28 3L29 3L29 1L26 1L26 3L25 3L25 1L24 1L24 0L22 0L22 2L23 2L23 4L21 4L21 5L23 5L23 6L22 6L22 7L21 7L21 6L20 6L20 4L18 4L18 2L19 2L19 1L18 1L18 2L17 2L17 1L16 1L16 2L14 2L14 4L13 4L13 6L12 6L12 5L11 5L11 3L12 3L12 2L13 2L13 1L15 1L15 0ZM20 0L20 1L21 1L21 0ZM10 1L10 3L11 3L11 2L12 2L12 1ZM14 4L14 6L13 6L13 9L12 9L12 6L11 6L11 5L10 5L10 6L9 6L9 8L10 8L10 9L8 9L8 12L9 12L9 13L8 13L8 15L6 15L6 16L5 16L5 15L4 15L4 16L3 16L3 17L2 17L2 18L3 18L3 19L5 19L5 20L2 20L2 21L3 21L3 22L2 22L2 23L1 23L1 25L3 25L3 26L4 26L4 25L5 25L5 24L8 24L8 22L9 22L9 21L5 21L5 20L7 20L7 19L5 19L5 18L4 18L4 16L5 16L5 17L6 17L6 18L7 18L7 17L10 17L10 16L11 16L11 18L8 18L8 19L9 19L9 20L10 20L10 19L14 19L14 18L15 18L15 19L16 19L16 18L17 18L17 19L18 19L18 18L20 18L20 19L21 19L21 20L20 20L20 21L19 21L19 20L16 20L16 21L15 21L15 22L14 22L14 23L13 23L13 20L12 20L12 21L10 21L10 22L12 22L12 24L14 24L14 23L15 23L15 24L17 24L17 23L18 23L18 21L19 21L19 22L20 22L20 23L19 23L19 25L20 25L20 26L19 26L19 27L18 27L18 28L19 28L19 27L20 27L20 26L22 26L22 27L21 27L21 28L20 28L20 29L17 29L17 30L19 30L19 31L22 31L22 30L23 30L23 29L25 29L25 28L26 28L26 26L24 26L24 25L30 25L30 24L29 24L29 23L30 23L30 22L29 22L29 21L30 21L30 20L31 20L31 19L30 19L30 20L29 20L29 21L27 21L27 20L28 20L28 19L29 19L29 18L32 18L32 19L33 19L33 20L36 20L36 18L35 18L35 17L34 17L34 16L35 16L35 15L36 15L36 14L33 14L33 13L34 13L34 12L33 12L33 13L30 13L30 12L31 12L31 11L32 11L32 10L31 10L31 11L30 11L30 9L28 9L28 10L29 10L29 11L28 11L28 13L27 13L27 11L26 11L26 10L27 10L27 9L26 9L26 8L25 8L25 7L26 7L26 6L25 6L25 7L24 7L24 6L23 6L23 8L21 8L21 7L20 7L20 6L19 6L19 7L18 7L18 6L17 6L17 5L18 5L18 4L17 4L17 5L16 5L16 6L15 6L15 4ZM23 4L23 5L25 5L25 4ZM26 4L26 5L28 5L28 4ZM10 6L10 7L11 7L11 6ZM14 6L14 7L15 7L15 6ZM16 6L16 9L15 9L15 8L14 8L14 9L13 9L13 10L12 10L12 9L10 9L10 10L9 10L9 11L10 11L10 10L11 10L11 12L12 12L12 11L13 11L13 13L9 13L9 16L10 16L10 15L11 15L11 16L14 16L14 15L15 15L15 13L16 13L16 16L17 16L17 18L18 18L18 16L19 16L19 17L20 17L20 16L22 16L22 17L21 17L21 18L22 18L22 17L23 17L23 19L28 19L28 18L29 18L29 17L33 17L33 16L34 16L34 15L33 15L33 16L31 16L31 14L30 14L30 13L28 13L28 14L26 14L26 12L25 12L25 14L24 14L24 13L23 13L23 14L19 14L19 15L18 15L18 16L17 16L17 14L18 14L18 13L16 13L16 11L17 11L17 10L18 10L18 7L17 7L17 6ZM19 7L19 8L20 8L20 7ZM14 9L14 12L15 12L15 9ZM20 9L20 10L19 10L19 11L18 11L18 12L19 12L19 13L22 13L22 11L23 11L23 12L24 12L24 11L25 11L25 10L23 10L23 9L22 9L22 10L21 10L21 9ZM20 10L20 11L19 11L19 12L21 12L21 10ZM4 11L4 13L5 13L5 14L7 14L7 13L5 13L5 12L7 12L7 11ZM11 14L11 15L12 15L12 14ZM23 14L23 15L22 15L22 16L23 16L23 17L24 17L24 18L26 18L26 17L27 17L27 18L28 18L28 17L29 17L29 16L30 16L30 15L29 15L29 14L28 14L28 16L26 16L26 14L25 14L25 16L23 16L23 15L24 15L24 14ZM6 16L6 17L7 17L7 16ZM25 16L25 17L26 17L26 16ZM12 17L12 18L14 18L14 17ZM15 17L15 18L16 18L16 17ZM23 20L23 22L22 22L22 21L21 21L21 22L22 22L22 23L23 23L23 24L20 24L20 25L22 25L22 26L23 26L23 25L24 25L24 23L25 23L25 21L26 21L26 22L27 22L27 23L26 23L26 24L28 24L28 23L29 23L29 22L27 22L27 21L26 21L26 20L25 20L25 21L24 21L24 20ZM4 21L4 22L3 22L3 24L4 24L4 23L5 23L5 21ZM16 21L16 23L17 23L17 21ZM6 22L6 23L7 23L7 22ZM33 23L33 25L35 25L35 24L34 24L34 23ZM36 24L36 25L37 25L37 24ZM9 27L9 28L10 28L10 27ZM22 27L22 29L23 29L23 27ZM24 27L24 28L25 28L25 27ZM13 28L13 29L14 29L14 30L15 30L15 29L16 29L16 28L15 28L15 29L14 29L14 28ZM33 28L33 32L35 32L35 31L36 31L36 30L35 30L35 29L34 29L34 28ZM29 29L29 32L32 32L32 29ZM30 30L30 31L31 31L31 30ZM12 32L12 33L13 33L13 34L14 34L14 33L15 33L15 32L14 32L14 33L13 33L13 32ZM29 33L29 34L27 34L27 35L29 35L29 34L30 34L30 35L32 35L32 36L33 36L33 34L30 34L30 33ZM13 35L13 36L15 36L15 35ZM0 0L0 7L7 7L7 0ZM1 1L1 6L6 6L6 1ZM2 2L2 5L5 5L5 2ZM30 0L30 7L37 7L37 0ZM31 1L31 6L36 6L36 1ZM32 2L32 5L35 5L35 2ZM0 30L0 37L7 37L7 30ZM1 31L1 36L6 36L6 31ZM2 32L2 35L5 35L5 32Z" fill="#000000"/></g></g></svg>
