<?xml version="1.0" encoding="UTF-8"?>
<svg xmlns="http://www.w3.org/2000/svg" version="1.1" width="300" height="300" viewBox="0 0 300 300"><rect x="0" y="0" width="300" height="300" fill="#ffffff"/><g transform="scale(8.108)"><g transform="translate(0,0)"><path fill-rule="evenodd" d="M8 0L8 3L9 3L9 5L8 5L8 10L9 10L9 11L10 11L10 10L11 10L11 12L10 12L10 14L9 14L9 15L7 15L7 14L6 14L6 13L7 13L7 12L8 12L8 11L7 11L7 10L5 10L5 8L2 8L2 10L1 10L1 9L0 9L0 16L1 16L1 14L2 14L2 17L3 17L3 18L1 18L1 20L2 20L2 21L1 21L1 24L0 24L0 29L1 29L1 25L2 25L2 23L4 23L4 24L5 24L5 25L4 25L4 27L3 27L3 26L2 26L2 27L3 27L3 29L7 29L7 28L5 28L5 26L6 26L6 27L8 27L8 26L6 26L6 25L9 25L9 27L10 27L10 29L9 29L9 28L8 28L8 30L10 30L10 31L13 31L13 30L15 30L15 32L16 32L16 31L17 31L17 30L15 30L15 29L13 29L13 28L14 28L14 27L15 27L15 28L16 28L16 29L17 29L17 28L18 28L18 27L19 27L19 26L18 26L18 25L17 25L17 26L16 26L16 25L14 25L14 24L15 24L15 22L16 22L16 24L17 24L17 23L19 23L19 24L20 24L20 25L21 25L21 26L22 26L22 27L20 27L20 29L22 29L22 30L20 30L20 31L19 31L19 32L17 32L17 33L14 33L14 35L13 35L13 36L11 36L11 33L12 33L12 32L11 32L11 33L10 33L10 34L9 34L9 32L8 32L8 35L10 35L10 36L9 36L9 37L13 37L13 36L15 36L15 37L16 37L16 35L17 35L17 37L18 37L18 36L19 36L19 37L22 37L22 36L23 36L23 37L24 37L24 35L26 35L26 36L25 36L25 37L26 37L26 36L29 36L29 35L26 35L26 34L23 34L23 33L22 33L22 34L21 34L21 35L20 35L20 31L22 31L22 30L28 30L28 32L27 32L27 31L26 31L26 32L25 32L25 31L23 31L23 32L24 32L24 33L28 33L28 34L31 34L31 36L30 36L30 37L37 37L37 34L36 34L36 36L34 36L34 34L33 34L33 32L34 32L34 33L35 33L35 32L34 32L34 31L37 31L37 30L34 30L34 29L37 29L37 28L32 28L32 27L35 27L35 26L36 26L36 27L37 27L37 26L36 26L36 25L35 25L35 24L37 24L37 22L34 22L34 21L37 21L37 18L36 18L36 17L37 17L37 16L36 16L36 17L35 17L35 16L31 16L31 15L32 15L32 13L33 13L33 12L34 12L34 13L35 13L35 14L34 14L34 15L35 15L35 14L36 14L36 15L37 15L37 14L36 14L36 13L37 13L37 10L34 10L34 9L37 9L37 8L34 8L34 9L32 9L32 8L26 8L26 7L27 7L27 6L28 6L28 7L29 7L29 4L28 4L28 3L29 3L29 2L28 2L28 1L27 1L27 2L26 2L26 1L25 1L25 0L23 0L23 2L22 2L22 1L21 1L21 0L20 0L20 3L19 3L19 0L17 0L17 1L16 1L16 0L15 0L15 1L14 1L14 2L13 2L13 3L15 3L15 1L16 1L16 2L18 2L18 3L16 3L16 5L13 5L13 4L12 4L12 5L11 5L11 2L10 2L10 1L11 1L11 0ZM21 2L21 3L20 3L20 4L19 4L19 3L18 3L18 4L17 4L17 5L19 5L19 7L20 7L20 5L22 5L22 6L21 6L21 8L19 8L19 9L18 9L18 6L17 6L17 8L15 8L15 7L16 7L16 6L15 6L15 7L14 7L14 6L13 6L13 7L12 7L12 6L11 6L11 7L10 7L10 5L9 5L9 7L10 7L10 9L9 9L9 10L10 10L10 9L11 9L11 7L12 7L12 9L13 9L13 10L12 10L12 11L13 11L13 12L11 12L11 13L13 13L13 14L14 14L14 13L13 13L13 12L15 12L15 15L13 15L13 18L14 18L14 19L16 19L16 22L17 22L17 21L18 21L18 22L19 22L19 21L20 21L20 22L21 22L21 24L22 24L22 21L23 21L23 20L24 20L24 23L23 23L23 24L24 24L24 25L23 25L23 28L22 28L22 29L25 29L25 28L26 28L26 29L28 29L28 27L30 27L30 26L27 26L27 28L26 28L26 26L24 26L24 25L27 25L27 24L28 24L28 25L30 25L30 24L28 24L28 23L30 23L30 22L31 22L31 27L32 27L32 26L33 26L33 23L32 23L32 22L33 22L33 21L30 21L30 20L29 20L29 19L27 19L27 18L28 18L28 17L30 17L30 18L32 18L32 19L33 19L33 20L36 20L36 18L35 18L35 17L30 17L30 15L29 15L29 13L30 13L30 14L31 14L31 13L32 13L32 12L31 12L31 13L30 13L30 11L28 11L28 12L29 12L29 13L27 13L27 12L26 12L26 11L27 11L27 9L26 9L26 8L25 8L25 7L26 7L26 6L25 6L25 5L24 5L24 6L23 6L23 5L22 5L22 4L25 4L25 3L26 3L26 4L27 4L27 5L28 5L28 4L27 4L27 3L26 3L26 2L24 2L24 3L22 3L22 2ZM21 3L21 4L22 4L22 3ZM22 6L22 8L21 8L21 9L22 9L22 10L21 10L21 11L20 11L20 12L18 12L18 11L19 11L19 10L20 10L20 9L19 9L19 10L18 10L18 11L17 11L17 10L16 10L16 11L15 11L15 8L14 8L14 7L13 7L13 8L14 8L14 11L15 11L15 12L16 12L16 15L17 15L17 12L18 12L18 14L19 14L19 15L18 15L18 16L17 16L17 17L15 17L15 16L14 16L14 18L17 18L17 20L18 20L18 18L17 18L17 17L20 17L20 18L19 18L19 19L20 19L20 18L21 18L21 16L22 16L22 17L23 17L23 18L24 18L24 20L25 20L25 21L26 21L26 22L27 22L27 23L26 23L26 24L27 24L27 23L28 23L28 22L30 22L30 21L28 21L28 20L27 20L27 19L26 19L26 18L27 18L27 17L28 17L28 16L29 16L29 15L28 15L28 14L26 14L26 12L25 12L25 13L24 13L24 9L22 9L22 8L24 8L24 7L25 7L25 6L24 6L24 7L23 7L23 6ZM6 8L6 9L7 9L7 8ZM3 9L3 10L2 10L2 12L1 12L1 13L2 13L2 14L3 14L3 10L4 10L4 12L5 12L5 10L4 10L4 9ZM28 9L28 10L30 10L30 9ZM22 10L22 11L21 11L21 12L20 12L20 13L21 13L21 14L20 14L20 15L19 15L19 16L21 16L21 15L22 15L22 13L23 13L23 10ZM31 10L31 11L32 11L32 10ZM33 10L33 11L34 11L34 12L35 12L35 13L36 13L36 11L34 11L34 10ZM6 11L6 12L7 12L7 11ZM16 11L16 12L17 12L17 11ZM4 14L4 15L3 15L3 16L4 16L4 17L5 17L5 18L3 18L3 19L4 19L4 20L3 20L3 21L4 21L4 20L5 20L5 22L7 22L7 23L6 23L6 24L7 24L7 23L9 23L9 22L11 22L11 23L10 23L10 24L9 24L9 25L10 25L10 26L11 26L11 30L12 30L12 26L13 26L13 22L12 22L12 21L14 21L14 20L11 20L11 19L12 19L12 17L11 17L11 18L10 18L10 15L11 15L11 16L12 16L12 15L11 15L11 14L10 14L10 15L9 15L9 16L7 16L7 15L5 15L5 14ZM25 14L25 15L24 15L24 18L26 18L26 17L27 17L27 16L28 16L28 15L27 15L27 16L26 16L26 14ZM4 15L4 16L5 16L5 17L7 17L7 16L5 16L5 15ZM25 16L25 17L26 17L26 16ZM6 18L6 19L7 19L7 20L6 20L6 21L8 21L8 22L9 22L9 21L11 21L11 20L10 20L10 18L8 18L8 19L7 19L7 18ZM22 19L22 20L23 20L23 19ZM25 19L25 20L26 20L26 21L27 21L27 22L28 22L28 21L27 21L27 20L26 20L26 19ZM8 20L8 21L9 21L9 20ZM24 23L24 24L25 24L25 23ZM34 23L34 24L35 24L35 23ZM11 24L11 26L12 26L12 24ZM34 25L34 26L35 26L35 25ZM15 26L15 27L16 27L16 26ZM24 27L24 28L25 28L25 27ZM18 29L18 30L19 30L19 29ZM29 29L29 32L32 32L32 29ZM30 30L30 31L31 31L31 30ZM33 30L33 31L34 31L34 30ZM36 32L36 33L37 33L37 32ZM17 33L17 34L19 34L19 33ZM31 33L31 34L32 34L32 36L33 36L33 34L32 34L32 33ZM0 0L0 7L7 7L7 0ZM1 1L1 6L6 6L6 1ZM2 2L2 5L5 5L5 2ZM30 0L30 7L37 7L37 0ZM31 1L31 6L36 6L36 1ZM32 2L32 5L35 5L35 2ZM0 30L0 37L7 37L7 30ZM1 31L1 36L6 36L6 31ZM2 32L2 35L5 35L5 32Z" fill="#000000"/></g></g></svg>
