<?xml version="1.0" encoding="UTF-8"?>
<svg xmlns="http://www.w3.org/2000/svg" version="1.1" width="300" height="300" viewBox="0 0 300 300"><rect x="0" y="0" width="300" height="300" fill="#ffffff"/><g transform="scale(8.108)"><g transform="translate(0,0)"><path fill-rule="evenodd" d="M8 0L8 3L9 3L9 5L8 5L8 9L7 9L7 8L6 8L6 9L7 9L7 10L6 10L6 11L7 11L7 12L4 12L4 13L2 13L2 14L1 14L1 15L2 15L2 16L1 16L1 17L3 17L3 18L2 18L2 19L3 19L3 20L1 20L1 22L0 22L0 29L1 29L1 26L2 26L2 25L4 25L4 26L3 26L3 29L4 29L4 28L5 28L5 27L4 27L4 26L5 26L5 24L6 24L6 25L10 25L10 27L9 27L9 26L6 26L6 27L7 27L7 28L6 28L6 29L8 29L8 30L9 30L9 29L8 29L8 27L9 27L9 28L11 28L11 25L10 25L10 24L11 24L11 23L12 23L12 24L13 24L13 25L12 25L12 26L14 26L14 27L15 27L15 28L14 28L14 29L13 29L13 27L12 27L12 29L13 29L13 30L11 30L11 31L9 31L9 32L8 32L8 35L11 35L11 34L10 34L10 33L12 33L12 32L11 32L11 31L13 31L13 37L15 37L15 35L17 35L17 34L18 34L18 31L17 31L17 33L16 33L16 31L15 31L15 28L16 28L16 30L19 30L19 31L20 31L20 32L19 32L19 36L20 36L20 37L21 37L21 36L20 36L20 34L21 34L21 35L22 35L22 34L23 34L23 37L24 37L24 35L26 35L26 36L25 36L25 37L26 37L26 36L27 36L27 37L28 37L28 36L29 36L29 37L37 37L37 34L36 34L36 36L34 36L34 35L35 35L35 34L34 34L34 33L35 33L35 32L34 32L34 31L35 31L35 30L36 30L36 31L37 31L37 30L36 30L36 29L37 29L37 28L32 28L32 27L31 27L31 24L32 24L32 23L33 23L33 26L35 26L35 27L37 27L37 26L35 26L35 24L34 24L34 23L33 23L33 22L34 22L34 21L37 21L37 18L34 18L34 17L35 17L35 16L34 16L34 15L35 15L35 14L36 14L36 17L37 17L37 14L36 14L36 13L37 13L37 12L36 12L36 11L37 11L37 10L36 10L36 9L37 9L37 8L34 8L34 9L35 9L35 10L33 10L33 9L32 9L32 8L29 8L29 6L28 6L28 5L26 5L26 4L29 4L29 2L28 2L28 1L26 1L26 3L25 3L25 2L24 2L24 1L22 1L22 2L24 2L24 3L21 3L21 2L19 2L19 6L18 6L18 7L17 7L17 5L18 5L18 2L16 2L16 4L15 4L15 5L14 5L14 7L13 7L13 6L12 6L12 5L11 5L11 6L10 6L10 1L11 1L11 2L12 2L12 1L11 1L11 0ZM13 0L13 1L14 1L14 3L12 3L12 4L14 4L14 3L15 3L15 0ZM17 0L17 1L19 1L19 0ZM20 0L20 1L21 1L21 0ZM27 2L27 3L28 3L28 2ZM16 4L16 5L15 5L15 7L14 7L14 8L13 8L13 7L12 7L12 6L11 6L11 7L10 7L10 6L9 6L9 7L10 7L10 9L9 9L9 11L8 11L8 12L7 12L7 13L5 13L5 14L7 14L7 15L4 15L4 14L2 14L2 15L4 15L4 17L5 17L5 16L7 16L7 15L8 15L8 16L9 16L9 15L8 15L8 14L7 14L7 13L9 13L9 14L10 14L10 15L11 15L11 17L9 17L9 19L10 19L10 20L13 20L13 21L12 21L12 23L13 23L13 24L15 24L15 25L14 25L14 26L15 26L15 27L17 27L17 28L18 28L18 27L19 27L19 28L20 28L20 29L21 29L21 28L20 28L20 27L23 27L23 29L22 29L22 32L24 32L24 30L25 30L25 32L26 32L26 33L23 33L23 34L26 34L26 33L27 33L27 32L26 32L26 31L28 31L28 27L29 27L29 28L30 28L30 26L27 26L27 29L24 29L24 27L25 27L25 28L26 28L26 26L24 26L24 25L27 25L27 24L28 24L28 25L30 25L30 24L29 24L29 23L30 23L30 22L33 22L33 21L27 21L27 19L25 19L25 18L28 18L28 17L29 17L29 18L32 18L32 19L33 19L33 20L36 20L36 19L33 19L33 17L34 17L34 16L33 16L33 15L34 15L34 14L35 14L35 13L36 13L36 12L35 12L35 11L36 11L36 10L35 10L35 11L34 11L34 12L33 12L33 13L32 13L32 12L31 12L31 11L32 11L32 10L31 10L31 11L30 11L30 12L29 12L29 11L28 11L28 12L29 12L29 13L27 13L27 12L26 12L26 11L27 11L27 9L26 9L26 8L28 8L28 6L27 6L27 7L26 7L26 6L25 6L25 7L24 7L24 6L23 6L23 7L22 7L22 4L20 4L20 6L19 6L19 7L18 7L18 8L17 8L17 7L16 7L16 5L17 5L17 4ZM23 4L23 5L25 5L25 4ZM20 6L20 8L21 8L21 9L19 9L19 10L20 10L20 14L19 14L19 13L18 13L18 12L19 12L19 11L18 11L18 9L17 9L17 8L16 8L16 7L15 7L15 8L14 8L14 9L15 9L15 10L16 10L16 9L17 9L17 11L16 11L16 12L15 12L15 14L14 14L14 11L13 11L13 10L12 10L12 9L13 9L13 8L11 8L11 9L10 9L10 10L11 10L11 11L10 11L10 13L11 13L11 12L12 12L12 13L13 13L13 14L14 14L14 15L13 15L13 16L14 16L14 15L15 15L15 17L14 17L14 21L16 21L16 22L17 22L17 23L15 23L15 24L17 24L17 25L15 25L15 26L17 26L17 25L18 25L18 26L21 26L21 25L18 25L18 23L19 23L19 24L22 24L22 26L23 26L23 24L25 24L25 21L26 21L26 22L27 22L27 23L26 23L26 24L27 24L27 23L29 23L29 22L27 22L27 21L26 21L26 20L25 20L25 19L22 19L22 18L24 18L24 16L25 16L25 17L28 17L28 14L26 14L26 12L22 12L22 11L25 11L25 8L26 8L26 7L25 7L25 8L24 8L24 7L23 7L23 9L22 9L22 8L21 8L21 6ZM2 8L2 9L3 9L3 10L1 10L1 11L0 11L0 12L3 12L3 11L5 11L5 8ZM15 8L15 9L16 9L16 8ZM28 9L28 10L30 10L30 9ZM21 10L21 11L22 11L22 10ZM12 11L12 12L13 12L13 11ZM16 12L16 14L17 14L17 12ZM21 12L21 14L20 14L20 15L22 15L22 16L23 16L23 15L22 15L22 14L23 14L23 13L22 13L22 12ZM30 12L30 13L29 13L29 15L30 15L30 16L29 16L29 17L33 17L33 16L31 16L31 15L32 15L32 13L31 13L31 12ZM34 12L34 13L33 13L33 14L34 14L34 13L35 13L35 12ZM24 13L24 15L25 15L25 16L26 16L26 14L25 14L25 13ZM30 13L30 14L31 14L31 13ZM11 14L11 15L12 15L12 14ZM17 15L17 18L16 18L16 17L15 17L15 19L16 19L16 21L17 21L17 22L18 22L18 21L22 21L22 20L19 20L19 19L18 19L18 21L17 21L17 18L20 18L20 17L21 17L21 18L22 18L22 17L21 17L21 16L20 16L20 17L19 17L19 16L18 16L18 15ZM6 17L6 18L7 18L7 19L5 19L5 18L4 18L4 19L5 19L5 20L4 20L4 21L3 21L3 22L1 22L1 25L2 25L2 23L3 23L3 24L4 24L4 23L5 23L5 22L8 22L8 18L7 18L7 17ZM12 17L12 18L13 18L13 17ZM28 19L28 20L29 20L29 19ZM5 20L5 21L4 21L4 22L5 22L5 21L7 21L7 20ZM23 20L23 22L22 22L22 23L24 23L24 21L25 21L25 20ZM9 22L9 23L8 23L8 24L10 24L10 22ZM13 22L13 23L14 23L14 22ZM35 22L35 23L37 23L37 22ZM6 23L6 24L7 24L7 23ZM36 24L36 25L37 25L37 24ZM23 29L23 30L24 30L24 29ZM29 29L29 32L32 32L32 29ZM34 29L34 30L35 30L35 29ZM13 30L13 31L14 31L14 32L15 32L15 31L14 31L14 30ZM30 30L30 31L31 31L31 30ZM9 32L9 33L10 33L10 32ZM20 32L20 33L21 33L21 32ZM33 32L33 33L34 33L34 32ZM36 32L36 33L37 33L37 32ZM14 33L14 35L15 35L15 33ZM31 33L31 34L28 34L28 35L27 35L27 36L28 36L28 35L31 35L31 34L32 34L32 36L33 36L33 34L32 34L32 33ZM10 36L10 37L11 37L11 36ZM17 36L17 37L18 37L18 36ZM0 0L0 7L7 7L7 0ZM1 1L1 6L6 6L6 1ZM2 2L2 5L5 5L5 2ZM30 0L30 7L37 7L37 0ZM31 1L31 6L36 6L36 1ZM32 2L32 5L35 5L35 2ZM0 30L0 37L7 37L7 30ZM1 31L1 36L6 36L6 31ZM2 32L2 35L5 35L5 32Z" fill="#000000"/></g></g></svg>
