<?xml version="1.0" encoding="UTF-8"?>
<svg xmlns="http://www.w3.org/2000/svg" version="1.1" width="300" height="300" viewBox="0 0 300 300"><rect x="0" y="0" width="300" height="300" fill="#ffffff"/><g transform="scale(8.108)"><g transform="translate(0,0)"><path fill-rule="evenodd" d="M8 0L8 3L9 3L9 5L8 5L8 10L4 10L4 9L5 9L5 8L2 8L2 9L1 9L1 10L0 10L0 11L2 11L2 10L4 10L4 11L3 11L3 12L2 12L2 14L1 14L1 13L0 13L0 15L2 15L2 16L0 16L0 17L3 17L3 16L6 16L6 17L4 17L4 18L3 18L3 19L2 19L2 21L1 21L1 19L0 19L0 21L1 21L1 22L0 22L0 24L1 24L1 25L0 25L0 29L1 29L1 25L2 25L2 26L3 26L3 27L2 27L2 28L4 28L4 29L5 29L5 28L6 28L6 29L7 29L7 28L8 28L8 26L9 26L9 25L11 25L11 26L12 26L12 27L9 27L9 28L12 28L12 27L13 27L13 28L14 28L14 29L15 29L15 33L16 33L16 34L14 34L14 30L12 30L12 32L8 32L8 35L9 35L9 37L11 37L11 36L10 36L10 35L9 35L9 33L11 33L11 34L12 34L12 35L13 35L13 37L14 37L14 36L15 36L15 37L16 37L16 34L17 34L17 36L18 36L18 37L19 37L19 36L20 36L20 37L28 37L28 36L29 36L29 37L37 37L37 34L36 34L36 36L34 36L34 35L35 35L35 34L34 34L34 33L35 33L35 32L36 32L36 33L37 33L37 32L36 32L36 31L37 31L37 30L35 30L35 32L34 32L34 31L33 31L33 29L35 29L35 28L31 28L31 22L30 22L30 23L29 23L29 21L33 21L33 22L35 22L35 23L37 23L37 22L35 22L35 21L37 21L37 18L36 18L36 17L37 17L37 16L36 16L36 17L35 17L35 16L31 16L31 15L33 15L33 14L34 14L34 13L35 13L35 14L36 14L36 15L37 15L37 14L36 14L36 13L37 13L37 10L36 10L36 9L37 9L37 8L34 8L34 9L35 9L35 10L33 10L33 9L32 9L32 8L26 8L26 7L27 7L27 6L28 6L28 7L29 7L29 6L28 6L28 5L29 5L29 4L28 4L28 1L27 1L27 4L26 4L26 3L25 3L25 1L24 1L24 3L25 3L25 5L24 5L24 4L23 4L23 0L21 0L21 1L22 1L22 3L19 3L19 4L21 4L21 5L18 5L18 8L16 8L16 7L17 7L17 6L16 6L16 5L17 5L17 4L18 4L18 2L20 2L20 1L18 1L18 2L16 2L16 0L10 0L10 1L11 1L11 2L9 2L9 0ZM14 1L14 3L12 3L12 2L11 2L11 4L10 4L10 6L9 6L9 8L10 8L10 6L11 6L11 7L12 7L12 8L13 8L13 10L12 10L12 9L9 9L9 10L10 10L10 12L11 12L11 13L12 13L12 12L13 12L13 14L12 14L12 16L13 16L13 17L12 17L12 19L10 19L10 17L11 17L11 16L10 16L10 15L11 15L11 14L10 14L10 13L9 13L9 16L8 16L8 11L6 11L6 12L7 12L7 13L6 13L6 14L5 14L5 13L4 13L4 12L5 12L5 11L4 11L4 12L3 12L3 14L2 14L2 15L4 15L4 14L5 14L5 15L6 15L6 16L8 16L8 17L9 17L9 18L7 18L7 17L6 17L6 18L5 18L5 19L4 19L4 20L3 20L3 21L2 21L2 22L1 22L1 23L2 23L2 22L4 22L4 23L3 23L3 24L2 24L2 25L3 25L3 26L4 26L4 25L3 25L3 24L4 24L4 23L5 23L5 24L7 24L7 25L5 25L5 27L4 27L4 28L5 28L5 27L6 27L6 28L7 28L7 27L6 27L6 26L8 26L8 23L5 23L5 22L7 22L7 21L6 21L6 20L8 20L8 19L10 19L10 21L9 21L9 23L11 23L11 24L12 24L12 26L14 26L14 28L15 28L15 29L16 29L16 31L17 31L17 30L18 30L18 29L17 29L17 28L15 28L15 27L17 27L17 26L19 26L19 30L21 30L21 31L19 31L19 33L17 33L17 32L16 32L16 33L17 33L17 34L18 34L18 36L19 36L19 33L20 33L20 36L23 36L23 35L22 35L22 34L25 34L25 35L24 35L24 36L26 36L26 35L27 35L27 36L28 36L28 35L29 35L29 34L30 34L30 35L32 35L32 36L33 36L33 34L30 34L30 33L26 33L26 34L25 34L25 33L24 33L24 32L26 32L26 31L27 31L27 32L28 32L28 30L27 30L27 29L28 29L28 27L30 27L30 26L27 26L27 29L26 29L26 30L23 30L23 31L22 31L22 30L21 30L21 29L20 29L20 27L21 27L21 28L22 28L22 29L25 29L25 28L26 28L26 26L24 26L24 25L27 25L27 24L26 24L26 23L27 23L27 22L28 22L28 21L29 21L29 20L31 20L31 19L30 19L30 18L32 18L32 19L33 19L33 20L36 20L36 18L35 18L35 17L27 17L27 16L30 16L30 15L27 15L27 16L26 16L26 14L31 14L31 13L32 13L32 14L33 14L33 13L32 13L32 12L31 12L31 13L27 13L27 9L26 9L26 8L25 8L25 7L26 7L26 6L25 6L25 7L24 7L24 5L23 5L23 4L22 4L22 6L21 6L21 7L20 7L20 6L19 6L19 7L20 7L20 8L18 8L18 9L15 9L15 10L14 10L14 5L16 5L16 4L17 4L17 3L16 3L16 4L15 4L15 1ZM11 4L11 5L14 5L14 4ZM27 4L27 5L28 5L28 4ZM12 6L12 7L13 7L13 6ZM15 6L15 7L16 7L16 6ZM22 6L22 7L21 7L21 8L23 8L23 10L22 10L22 11L18 11L18 10L19 10L19 9L18 9L18 10L17 10L17 11L16 11L16 10L15 10L15 12L14 12L14 10L13 10L13 12L14 12L14 13L15 13L15 14L13 14L13 15L15 15L15 14L16 14L16 15L17 15L17 16L16 16L16 18L17 18L17 20L16 20L16 19L12 19L12 20L11 20L11 22L12 22L12 23L13 23L13 25L14 25L14 26L16 26L16 25L18 25L18 23L19 23L19 24L20 24L20 26L22 26L22 28L23 28L23 26L22 26L22 25L23 25L23 23L21 23L21 21L22 21L22 19L24 19L24 21L23 21L23 22L24 22L24 23L25 23L25 22L24 22L24 21L26 21L26 22L27 22L27 21L28 21L28 20L29 20L29 19L28 19L28 18L27 18L27 17L26 17L26 16L25 16L25 14L26 14L26 12L24 12L24 8L23 8L23 6ZM6 8L6 9L7 9L7 8ZM28 9L28 10L29 10L29 11L28 11L28 12L29 12L29 11L30 11L30 9ZM25 10L25 11L26 11L26 10ZM31 10L31 11L32 11L32 10ZM35 10L35 11L33 11L33 12L35 12L35 11L36 11L36 10ZM17 11L17 13L16 13L16 14L17 14L17 15L18 15L18 14L19 14L19 16L20 16L20 14L21 14L21 13L22 13L22 15L21 15L21 16L22 16L22 17L23 17L23 18L24 18L24 19L25 19L25 20L26 20L26 21L27 21L27 20L28 20L28 19L27 19L27 18L24 18L24 17L23 17L23 16L24 16L24 15L23 15L23 13L22 13L22 12L23 12L23 11L22 11L22 12L20 12L20 14L19 14L19 13L18 13L18 11ZM6 14L6 15L7 15L7 14ZM22 15L22 16L23 16L23 15ZM9 16L9 17L10 17L10 16ZM14 16L14 17L13 17L13 18L14 18L14 17L15 17L15 16ZM18 17L18 18L19 18L19 19L18 19L18 20L17 20L17 21L16 21L16 20L15 20L15 21L16 21L16 24L14 24L14 25L16 25L16 24L17 24L17 22L18 22L18 21L19 21L19 23L20 23L20 21L21 21L21 19L22 19L22 18L21 18L21 19L20 19L20 18L19 18L19 17ZM6 18L6 19L5 19L5 20L4 20L4 22L5 22L5 20L6 20L6 19L7 19L7 18ZM33 18L33 19L35 19L35 18ZM19 19L19 21L20 21L20 19ZM12 20L12 21L13 21L13 22L14 22L14 23L15 23L15 22L14 22L14 20ZM33 23L33 26L32 26L32 27L33 27L33 26L34 26L34 27L35 27L35 26L36 26L36 27L37 27L37 26L36 26L36 25L37 25L37 24L36 24L36 25L35 25L35 24L34 24L34 23ZM28 24L28 25L30 25L30 24ZM34 25L34 26L35 26L35 25ZM24 27L24 28L25 28L25 27ZM36 28L36 29L37 29L37 28ZM8 29L8 30L9 30L9 29ZM10 29L10 31L11 31L11 29ZM29 29L29 32L32 32L32 29ZM30 30L30 31L31 31L31 30ZM21 31L21 34L22 34L22 33L23 33L23 32L22 32L22 31ZM12 32L12 33L13 33L13 32ZM33 32L33 33L34 33L34 32ZM27 34L27 35L28 35L28 34ZM0 0L0 7L7 7L7 0ZM1 1L1 6L6 6L6 1ZM2 2L2 5L5 5L5 2ZM30 0L30 7L37 7L37 0ZM31 1L31 6L36 6L36 1ZM32 2L32 5L35 5L35 2ZM0 30L0 37L7 37L7 30ZM1 31L1 36L6 36L6 31ZM2 32L2 35L5 35L5 32Z" fill="#000000"/></g></g></svg>
