<?xml version="1.0" encoding="UTF-8"?>
<svg xmlns="http://www.w3.org/2000/svg" version="1.1" width="300" height="300" viewBox="0 0 300 300"><rect x="0" y="0" width="300" height="300" fill="#ffffff"/><g transform="scale(8.108)"><g transform="translate(0,0)"><path fill-rule="evenodd" d="M8 0L8 3L9 3L9 5L8 5L8 10L9 10L9 11L7 11L7 10L6 10L6 9L7 9L7 8L6 8L6 9L5 9L5 8L2 8L2 9L1 9L1 10L2 10L2 9L3 9L3 10L4 10L4 12L3 12L3 11L1 11L1 12L0 12L0 13L2 13L2 14L1 14L1 15L2 15L2 16L1 16L1 17L0 17L0 19L2 19L2 18L3 18L3 19L5 19L5 20L1 20L1 21L0 21L0 23L1 23L1 24L0 24L0 29L1 29L1 26L3 26L3 28L2 28L2 29L3 29L3 28L4 28L4 29L7 29L7 28L9 28L9 29L8 29L8 30L9 30L9 32L8 32L8 35L9 35L9 37L11 37L11 35L9 35L9 33L13 33L13 34L12 34L12 35L13 35L13 36L12 36L12 37L13 37L13 36L14 36L14 37L15 37L15 36L16 36L16 35L15 35L15 36L14 36L14 35L13 35L13 34L17 34L17 33L18 33L18 31L17 31L17 29L18 29L18 30L19 30L19 33L20 33L20 34L22 34L22 36L21 36L21 35L20 35L20 37L22 37L22 36L23 36L23 37L24 37L24 35L25 35L25 34L22 34L22 33L23 33L23 30L25 30L25 31L26 31L26 30L25 30L25 29L27 29L27 30L28 30L28 32L24 32L24 33L28 33L28 34L26 34L26 35L27 35L27 36L29 36L29 37L30 37L30 36L31 36L31 37L37 37L37 34L36 34L36 36L34 36L34 35L35 35L35 34L33 34L33 33L35 33L35 32L36 32L36 33L37 33L37 30L36 30L36 29L37 29L37 28L32 28L32 26L31 26L31 22L30 22L30 21L37 21L37 18L34 18L34 17L37 17L37 16L36 16L36 15L37 15L37 14L35 14L35 16L32 16L32 13L33 13L33 14L34 14L34 13L35 13L35 12L36 12L36 13L37 13L37 12L36 12L36 11L37 11L37 10L36 10L36 9L37 9L37 8L34 8L34 9L35 9L35 10L33 10L33 9L32 9L32 8L29 8L29 6L28 6L28 5L27 5L27 4L29 4L29 3L27 3L27 2L28 2L28 1L26 1L26 3L24 3L24 1L25 1L25 0L23 0L23 1L22 1L22 0L18 0L18 1L19 1L19 2L17 2L17 4L15 4L15 5L14 5L14 2L15 2L15 0L14 0L14 2L13 2L13 1L12 1L12 0L11 0L11 1L10 1L10 0ZM16 0L16 1L17 1L17 0ZM9 2L9 3L11 3L11 4L13 4L13 3L11 3L11 2ZM21 2L21 4L20 4L20 5L22 5L22 6L21 6L21 8L20 8L20 6L19 6L19 8L18 8L18 5L19 5L19 3L18 3L18 4L17 4L17 5L15 5L15 7L16 7L16 8L14 8L14 9L13 9L13 8L11 8L11 9L9 9L9 10L10 10L10 11L9 11L9 13L6 13L6 12L7 12L7 11L6 11L6 10L5 10L5 12L4 12L4 13L3 13L3 12L2 12L2 13L3 13L3 15L5 15L5 16L7 16L7 17L6 17L6 18L5 18L5 19L6 19L6 20L7 20L7 21L5 21L5 22L7 22L7 23L6 23L6 24L7 24L7 25L5 25L5 24L4 24L4 23L3 23L3 24L1 24L1 25L3 25L3 26L4 26L4 27L5 27L5 28L7 28L7 27L8 27L8 24L9 24L9 27L10 27L10 26L11 26L11 27L13 27L13 28L12 28L12 29L11 29L11 28L10 28L10 29L11 29L11 32L14 32L14 33L15 33L15 32L16 32L16 33L17 33L17 32L16 32L16 31L14 31L14 30L16 30L16 29L17 29L17 28L16 28L16 29L14 29L14 27L16 27L16 26L17 26L17 27L18 27L18 29L19 29L19 30L20 30L20 32L22 32L22 30L23 30L23 29L25 29L25 28L26 28L26 26L24 26L24 25L27 25L27 24L28 24L28 25L30 25L30 24L28 24L28 23L30 23L30 22L28 22L28 21L30 21L30 20L31 20L31 19L27 19L27 18L28 18L28 17L30 17L30 18L32 18L32 19L33 19L33 20L36 20L36 19L34 19L34 18L33 18L33 17L30 17L30 15L29 15L29 14L28 14L28 13L30 13L30 14L31 14L31 13L32 13L32 12L31 12L31 13L30 13L30 12L29 12L29 11L28 11L28 13L27 13L27 12L26 12L26 11L27 11L27 9L26 9L26 8L27 8L27 7L28 7L28 6L27 6L27 7L26 7L26 6L25 6L25 7L26 7L26 8L25 8L25 9L24 9L24 8L23 8L23 7L24 7L24 5L25 5L25 4L23 4L23 5L22 5L22 3L23 3L23 2ZM26 3L26 4L27 4L27 3ZM9 5L9 7L10 7L10 6L11 6L11 7L12 7L12 5ZM13 5L13 7L14 7L14 5ZM16 6L16 7L17 7L17 6ZM22 6L22 7L23 7L23 6ZM16 8L16 9L14 9L14 10L18 10L18 11L19 11L19 10L20 10L20 11L21 11L21 13L20 13L20 14L21 14L21 17L20 17L20 18L22 18L22 21L21 21L21 22L20 22L20 23L22 23L22 22L23 22L23 23L25 23L25 21L28 21L28 20L27 20L27 19L26 19L26 20L25 20L25 18L26 18L26 17L28 17L28 16L27 16L27 15L28 15L28 14L26 14L26 12L25 12L25 11L26 11L26 10L25 10L25 11L24 11L24 10L23 10L23 8L21 8L21 9L20 9L20 8L19 8L19 9L17 9L17 8ZM11 9L11 10L12 10L12 11L10 11L10 14L9 14L9 15L8 15L8 14L6 14L6 13L5 13L5 14L6 14L6 15L8 15L8 16L9 16L9 17L8 17L8 18L6 18L6 19L7 19L7 20L8 20L8 21L9 21L9 20L8 20L8 18L10 18L10 19L12 19L12 21L11 21L11 20L10 20L10 21L11 21L11 23L12 23L12 24L11 24L11 25L14 25L14 26L15 26L15 25L16 25L16 24L18 24L18 25L17 25L17 26L18 26L18 27L21 27L21 28L20 28L20 29L21 29L21 30L22 30L22 29L23 29L23 28L22 28L22 27L23 27L23 26L22 26L22 24L20 24L20 25L19 25L19 24L18 24L18 21L16 21L16 22L15 22L15 23L13 23L13 22L12 22L12 21L13 21L13 20L14 20L14 21L15 21L15 20L16 20L16 18L17 18L17 19L18 19L18 17L19 17L19 16L18 16L18 15L19 15L19 14L17 14L17 13L18 13L18 12L17 12L17 11L16 11L16 12L17 12L17 13L15 13L15 14L11 14L11 12L13 12L13 9ZM28 9L28 10L30 10L30 9ZM21 10L21 11L22 11L22 12L23 12L23 13L24 13L24 12L23 12L23 11L22 11L22 10ZM31 10L31 11L32 11L32 10ZM35 10L35 11L33 11L33 12L35 12L35 11L36 11L36 10ZM14 11L14 12L15 12L15 11ZM21 13L21 14L22 14L22 13ZM16 14L16 15L14 15L14 16L17 16L17 17L18 17L18 16L17 16L17 14ZM23 14L23 15L22 15L22 18L23 18L23 15L24 15L24 18L25 18L25 16L26 16L26 14ZM9 15L9 16L10 16L10 15ZM12 15L12 16L13 16L13 15ZM1 17L1 18L2 18L2 17ZM3 17L3 18L4 18L4 17ZM10 17L10 18L11 18L11 17ZM12 17L12 19L13 19L13 17ZM14 19L14 20L15 20L15 19ZM20 19L20 20L21 20L21 19ZM23 19L23 20L24 20L24 19ZM2 21L2 22L3 22L3 21ZM23 21L23 22L24 22L24 21ZM16 22L16 23L17 23L17 22ZM27 22L27 23L26 23L26 24L27 24L27 23L28 23L28 22ZM32 22L32 23L33 23L33 26L34 26L34 27L35 27L35 26L36 26L36 27L37 27L37 26L36 26L36 25L37 25L37 24L36 24L36 25L35 25L35 24L34 24L34 23L37 23L37 22ZM9 23L9 24L10 24L10 23ZM3 24L3 25L4 25L4 26L5 26L5 25L4 25L4 24ZM14 24L14 25L15 25L15 24ZM23 24L23 25L24 25L24 24ZM34 25L34 26L35 26L35 25ZM6 26L6 27L7 27L7 26ZM27 26L27 29L28 29L28 27L29 27L29 28L31 28L31 27L30 27L30 26ZM24 27L24 28L25 28L25 27ZM21 28L21 29L22 29L22 28ZM12 29L12 31L13 31L13 30L14 30L14 29ZM29 29L29 32L32 32L32 29ZM34 29L34 30L33 30L33 32L35 32L35 31L36 31L36 30L35 30L35 29ZM30 30L30 31L31 31L31 30ZM29 33L29 34L28 34L28 35L29 35L29 36L30 36L30 35L31 35L31 34L32 34L32 36L33 36L33 34L32 34L32 33L31 33L31 34L30 34L30 33ZM18 34L18 35L19 35L19 34ZM29 34L29 35L30 35L30 34ZM18 36L18 37L19 37L19 36ZM25 36L25 37L26 37L26 36ZM0 0L0 7L7 7L7 0ZM1 1L1 6L6 6L6 1ZM2 2L2 5L5 5L5 2ZM30 0L30 7L37 7L37 0ZM31 1L31 6L36 6L36 1ZM32 2L32 5L35 5L35 2ZM0 30L0 37L7 37L7 30ZM1 31L1 36L6 36L6 31ZM2 32L2 35L5 35L5 32Z" fill="#000000"/></g></g></svg>
