<?xml version="1.0" encoding="UTF-8"?>
<svg xmlns="http://www.w3.org/2000/svg" version="1.1" width="300" height="300" viewBox="0 0 300 300"><rect x="0" y="0" width="300" height="300" fill="#ffffff"/><g transform="scale(8.108)"><g transform="translate(0,0)"><path fill-rule="evenodd" d="M8 0L8 2L9 2L9 3L8 3L8 7L9 7L9 4L10 4L10 7L11 7L11 6L12 6L12 7L13 7L13 6L14 6L14 8L12 8L12 9L11 9L11 10L9 10L9 9L10 9L10 8L9 8L9 9L8 9L8 10L6 10L6 11L5 11L5 9L4 9L4 8L3 8L3 9L1 9L1 10L0 10L0 14L1 14L1 12L2 12L2 13L3 13L3 15L4 15L4 17L5 17L5 18L4 18L4 19L3 19L3 20L4 20L4 21L5 21L5 20L4 20L4 19L7 19L7 18L8 18L8 20L9 20L9 18L11 18L11 19L10 19L10 20L12 20L12 19L13 19L13 21L14 21L14 22L11 22L11 21L10 21L10 22L9 22L9 21L8 21L8 24L5 24L5 26L3 26L3 25L4 25L4 24L3 24L3 23L2 23L2 22L3 22L3 21L2 21L2 20L0 20L0 21L2 21L2 22L0 22L0 23L2 23L2 24L3 24L3 25L2 25L2 27L1 27L1 26L0 26L0 27L1 27L1 28L0 28L0 29L2 29L2 28L3 28L3 29L8 29L8 30L9 30L9 33L8 33L8 34L9 34L9 35L10 35L10 34L9 34L9 33L10 33L10 32L11 32L11 31L10 31L10 30L9 30L9 29L8 29L8 28L10 28L10 29L11 29L11 30L12 30L12 31L13 31L13 32L12 32L12 33L11 33L11 34L12 34L12 35L11 35L11 37L12 37L12 35L13 35L13 34L14 34L14 35L15 35L15 37L16 37L16 35L17 35L17 37L18 37L18 36L19 36L19 37L20 37L20 36L19 36L19 35L17 35L17 34L20 34L20 33L18 33L18 32L17 32L17 30L20 30L20 32L21 32L21 34L23 34L23 35L21 35L21 36L22 36L22 37L24 37L24 36L25 36L25 37L27 37L27 35L28 35L28 37L30 37L30 35L28 35L28 34L27 34L27 33L26 33L26 32L28 32L28 33L32 33L32 34L31 34L31 35L32 35L32 36L31 36L31 37L32 37L32 36L34 36L34 35L35 35L35 34L36 34L36 35L37 35L37 33L36 33L36 32L35 32L35 31L37 31L37 28L36 28L36 30L35 30L35 31L34 31L34 32L35 32L35 34L34 34L34 35L33 35L33 30L34 30L34 29L35 29L35 28L34 28L34 29L33 29L33 28L32 28L32 26L30 26L30 27L31 27L31 28L29 28L29 26L28 26L28 25L29 25L29 24L30 24L30 25L31 25L31 24L30 24L30 23L32 23L32 25L33 25L33 26L35 26L35 27L37 27L37 25L36 25L36 26L35 26L35 25L33 25L33 24L34 24L34 23L35 23L35 24L36 24L36 23L37 23L37 20L36 20L36 19L37 19L37 16L36 16L36 15L37 15L37 12L35 12L35 13L34 13L34 14L33 14L33 15L32 15L32 14L31 14L31 13L32 13L32 12L30 12L30 11L32 11L32 10L33 10L33 9L34 9L34 8L31 8L31 9L32 9L32 10L30 10L30 9L29 9L29 10L28 10L28 9L27 9L27 8L29 8L29 5L28 5L28 4L29 4L29 3L26 3L26 5L27 5L27 6L26 6L26 7L25 7L25 5L24 5L24 7L23 7L23 5L22 5L22 3L23 3L23 4L25 4L25 3L24 3L24 2L25 2L25 1L27 1L27 2L28 2L28 1L29 1L29 0L24 0L24 1L23 1L23 0L22 0L22 1L21 1L21 0L18 0L18 1L17 1L17 0L16 0L16 1L17 1L17 5L16 5L16 2L15 2L15 1L14 1L14 0L12 0L12 1L13 1L13 2L12 2L12 3L15 3L15 5L13 5L13 4L11 4L11 3L10 3L10 2L11 2L11 0ZM9 1L9 2L10 2L10 1ZM19 1L19 2L21 2L21 1ZM22 1L22 2L23 2L23 1ZM18 3L18 4L20 4L20 6L19 6L19 7L18 7L18 5L17 5L17 8L16 8L16 5L15 5L15 8L14 8L14 9L13 9L13 10L12 10L12 13L11 13L11 11L10 11L10 13L9 13L9 11L8 11L8 14L7 14L7 13L6 13L6 14L5 14L5 15L6 15L6 16L5 16L5 17L6 17L6 18L7 18L7 17L8 17L8 18L9 18L9 17L11 17L11 15L10 15L10 16L9 16L9 15L8 15L8 14L10 14L10 13L11 13L11 14L13 14L13 13L14 13L14 12L15 12L15 14L16 14L16 12L15 12L15 10L14 10L14 9L16 9L16 10L17 10L17 8L18 8L18 10L19 10L19 12L18 12L18 11L17 11L17 13L19 13L19 14L18 14L18 15L16 15L16 16L18 16L18 15L19 15L19 17L18 17L18 20L17 20L17 18L16 18L16 17L15 17L15 15L14 15L14 17L12 17L12 18L16 18L16 19L15 19L15 20L17 20L17 21L15 21L15 22L14 22L14 24L13 24L13 25L12 25L12 24L11 24L11 23L10 23L10 25L12 25L12 26L10 26L10 27L12 27L12 29L14 29L14 30L13 30L13 31L14 31L14 32L13 32L13 33L15 33L15 34L16 34L16 33L15 33L15 32L16 32L16 31L14 31L14 30L15 30L15 28L16 28L16 25L14 25L14 24L15 24L15 23L16 23L16 22L17 22L17 23L18 23L18 24L17 24L17 25L19 25L19 24L20 24L20 23L22 23L22 25L21 25L21 26L18 26L18 27L17 27L17 28L18 28L18 29L20 29L20 30L21 30L21 31L24 31L24 32L26 32L26 30L28 30L28 29L26 29L26 28L25 28L25 27L26 27L26 26L25 26L25 25L26 25L26 24L27 24L27 25L28 25L28 24L27 24L27 23L30 23L30 21L29 21L29 22L28 22L28 20L27 20L27 19L29 19L29 20L30 20L30 18L29 18L29 17L30 17L30 16L31 16L31 17L33 17L33 21L32 21L32 20L31 20L31 22L33 22L33 21L34 21L34 22L35 22L35 23L36 23L36 20L34 20L34 18L35 18L35 19L36 19L36 18L35 18L35 17L33 17L33 16L31 16L31 15L30 15L30 14L28 14L28 13L29 13L29 11L30 11L30 10L29 10L29 11L28 11L28 10L27 10L27 9L26 9L26 8L27 8L27 7L28 7L28 6L27 6L27 7L26 7L26 8L25 8L25 10L27 10L27 11L26 11L26 12L27 12L27 13L26 13L26 14L25 14L25 13L24 13L24 10L23 10L23 12L22 12L22 11L21 11L21 10L22 10L22 9L21 9L21 8L22 8L22 6L21 6L21 4L20 4L20 3ZM20 6L20 7L19 7L19 8L21 8L21 6ZM6 8L6 9L7 9L7 8ZM35 8L35 11L37 11L37 8ZM3 9L3 10L4 10L4 9ZM20 9L20 10L21 10L21 9ZM1 10L1 11L2 11L2 12L3 12L3 11L2 11L2 10ZM13 10L13 12L14 12L14 10ZM4 11L4 13L5 13L5 11ZM6 11L6 12L7 12L7 11ZM20 11L20 12L21 12L21 11ZM27 11L27 12L28 12L28 11ZM21 13L21 14L22 14L22 13ZM23 13L23 14L24 14L24 13ZM6 14L6 15L7 15L7 14ZM19 14L19 15L20 15L20 14ZM26 14L26 15L24 15L24 16L23 16L23 17L22 17L22 15L21 15L21 16L20 16L20 18L19 18L19 19L20 19L20 20L18 20L18 21L19 21L19 22L20 22L20 21L23 21L23 22L22 22L22 23L23 23L23 22L24 22L24 19L26 19L26 18L27 18L27 17L29 17L29 16L30 16L30 15L29 15L29 16L28 16L28 15L27 15L27 14ZM35 14L35 15L34 15L34 16L35 16L35 15L36 15L36 14ZM1 15L1 16L0 16L0 17L1 17L1 18L3 18L3 16L2 16L2 15ZM1 16L1 17L2 17L2 16ZM6 16L6 17L7 17L7 16ZM8 16L8 17L9 17L9 16ZM24 16L24 17L27 17L27 16ZM21 17L21 18L22 18L22 17ZM23 18L23 19L21 19L21 20L23 20L23 19L24 19L24 18ZM6 20L6 21L7 21L7 20ZM25 20L25 24L26 24L26 23L27 23L27 21L26 21L26 20ZM5 22L5 23L7 23L7 22ZM23 24L23 25L22 25L22 26L23 26L23 28L24 28L24 24ZM6 25L6 26L9 26L9 25ZM13 25L13 28L14 28L14 27L15 27L15 26L14 26L14 25ZM3 27L3 28L4 28L4 27ZM5 27L5 28L8 28L8 27ZM18 27L18 28L19 28L19 27ZM20 27L20 28L22 28L22 27ZM27 27L27 28L28 28L28 27ZM21 29L21 30L24 30L24 31L25 31L25 30L26 30L26 29L25 29L25 30L24 30L24 29ZM29 29L29 32L32 32L32 29ZM30 30L30 31L31 31L31 30ZM22 32L22 33L23 33L23 32ZM25 34L25 35L27 35L27 34ZM13 36L13 37L14 37L14 36ZM35 36L35 37L37 37L37 36ZM0 0L0 7L7 7L7 0ZM1 1L1 6L6 6L6 1ZM2 2L2 5L5 5L5 2ZM30 0L30 7L37 7L37 0ZM31 1L31 6L36 6L36 1ZM32 2L32 5L35 5L35 2ZM0 30L0 37L7 37L7 30ZM1 31L1 36L6 36L6 31ZM2 32L2 35L5 35L5 32Z" fill="#000000"/></g></g></svg>
