<?xml version="1.0" encoding="UTF-8"?>
<svg xmlns="http://www.w3.org/2000/svg" version="1.1" width="300" height="300" viewBox="0 0 300 300"><rect x="0" y="0" width="300" height="300" fill="#ffffff"/><g transform="scale(8.108)"><g transform="translate(0,0)"><path fill-rule="evenodd" d="M8 0L8 3L10 3L10 7L9 7L9 5L8 5L8 9L7 9L7 8L6 8L6 9L7 9L7 10L4 10L4 9L5 9L5 8L2 8L2 10L3 10L3 11L4 11L4 13L3 13L3 14L2 14L2 15L3 15L3 16L2 16L2 17L3 17L3 18L5 18L5 16L6 16L6 17L7 17L7 18L6 18L6 19L8 19L8 20L4 20L4 19L3 19L3 20L2 20L2 19L0 19L0 21L1 21L1 20L2 20L2 21L3 21L3 20L4 20L4 21L8 21L8 22L6 22L6 23L5 23L5 22L4 22L4 25L3 25L3 24L2 24L2 25L0 25L0 29L1 29L1 26L2 26L2 25L3 25L3 26L5 26L5 25L8 25L8 26L6 26L6 27L3 27L3 28L2 28L2 29L5 29L5 28L6 28L6 29L7 29L7 28L10 28L10 26L11 26L11 28L12 28L12 29L8 29L8 30L9 30L9 31L10 31L10 30L12 30L12 31L13 31L13 33L12 33L12 32L10 32L10 36L9 36L9 37L11 37L11 36L13 36L13 37L14 37L14 35L17 35L17 36L16 36L16 37L18 37L18 36L19 36L19 35L22 35L22 33L21 33L21 32L22 32L22 31L23 31L23 30L25 30L25 29L26 29L26 30L28 30L28 32L27 32L27 31L26 31L26 32L24 32L24 33L25 33L25 34L23 34L23 37L28 37L28 36L29 36L29 37L30 37L30 36L31 36L31 37L37 37L37 34L36 34L36 36L34 36L34 35L33 35L33 36L32 36L32 35L30 35L30 34L34 34L34 33L37 33L37 32L36 32L36 31L37 31L37 30L33 30L33 29L35 29L35 28L36 28L36 29L37 29L37 28L36 28L36 27L37 27L37 26L36 26L36 25L37 25L37 24L36 24L36 25L35 25L35 24L34 24L34 22L35 22L35 23L37 23L37 22L35 22L35 21L37 21L37 18L35 18L35 19L36 19L36 20L34 20L34 18L33 18L33 19L32 19L32 18L30 18L30 17L35 17L35 16L36 16L36 17L37 17L37 16L36 16L36 15L37 15L37 14L35 14L35 16L33 16L33 15L32 15L32 13L33 13L33 14L34 14L34 13L35 13L35 12L33 12L33 11L35 11L35 10L36 10L36 13L37 13L37 10L36 10L36 9L37 9L37 8L34 8L34 9L32 9L32 8L29 8L29 6L28 6L28 5L26 5L26 4L29 4L29 3L28 3L28 2L29 2L29 1L23 1L23 0L20 0L20 3L17 3L17 2L19 2L19 0L17 0L17 1L16 1L16 0L11 0L11 1L10 1L10 0ZM9 1L9 2L10 2L10 3L11 3L11 2L12 2L12 3L13 3L13 4L12 4L12 5L11 5L11 8L12 8L12 6L13 6L13 8L14 8L14 5L16 5L16 4L17 4L17 7L16 7L16 6L15 6L15 7L16 7L16 8L15 8L15 9L12 9L12 12L13 12L13 14L12 14L12 13L9 13L9 14L7 14L7 13L8 13L8 11L10 11L10 12L11 12L11 11L10 11L10 10L11 10L11 9L10 9L10 8L9 8L9 9L8 9L8 10L7 10L7 11L6 11L6 12L5 12L5 13L6 13L6 14L7 14L7 15L6 15L6 16L7 16L7 17L8 17L8 16L11 16L11 18L12 18L12 19L10 19L10 17L9 17L9 19L10 19L10 20L8 20L8 21L9 21L9 22L8 22L8 23L9 23L9 24L8 24L8 25L10 25L10 24L11 24L11 23L10 23L10 22L11 22L11 21L12 21L12 23L13 23L13 22L14 22L14 21L15 21L15 20L16 20L16 21L17 21L17 22L15 22L15 24L14 24L14 25L15 25L15 27L14 27L14 26L13 26L13 25L12 25L12 26L13 26L13 27L12 27L12 28L13 28L13 27L14 27L14 30L13 30L13 29L12 29L12 30L13 30L13 31L14 31L14 32L16 32L16 31L17 31L17 33L16 33L16 34L17 34L17 35L18 35L18 34L21 34L21 33L20 33L20 31L22 31L22 30L20 30L20 31L19 31L19 30L18 30L18 29L21 29L21 28L22 28L22 29L25 29L25 28L26 28L26 29L28 29L28 27L29 27L29 26L27 26L27 28L26 28L26 26L24 26L24 25L27 25L27 24L26 24L26 23L27 23L27 22L29 22L29 23L28 23L28 25L30 25L30 24L29 24L29 23L30 23L30 22L31 22L31 27L30 27L30 28L31 28L31 27L32 27L32 28L35 28L35 27L36 27L36 26L35 26L35 25L34 25L34 26L33 26L33 21L34 21L34 20L33 20L33 21L32 21L32 20L31 20L31 19L30 19L30 18L29 18L29 17L30 17L30 15L29 15L29 17L23 17L23 16L24 16L24 15L22 15L22 17L21 17L21 18L20 18L20 14L21 14L21 12L22 12L22 11L24 11L24 12L26 12L26 14L25 14L25 13L23 13L23 14L25 14L25 16L26 16L26 14L29 14L29 13L30 13L30 14L31 14L31 13L32 13L32 12L31 12L31 11L32 11L32 10L31 10L31 11L28 11L28 12L29 12L29 13L27 13L27 12L26 12L26 11L27 11L27 9L26 9L26 8L28 8L28 6L27 6L27 7L26 7L26 6L25 6L25 5L22 5L22 6L21 6L21 8L22 8L22 6L23 6L23 9L22 9L22 10L21 10L21 9L19 9L19 11L18 11L18 5L19 5L19 4L17 4L17 3L16 3L16 1L15 1L15 3L14 3L14 2L12 2L12 1L11 1L11 2L10 2L10 1ZM21 1L21 2L22 2L22 3L23 3L23 4L25 4L25 3L26 3L26 2L25 2L25 3L24 3L24 2L22 2L22 1ZM20 4L20 5L21 5L21 4ZM19 6L19 8L20 8L20 6ZM24 6L24 7L25 7L25 8L24 8L24 10L26 10L26 9L25 9L25 8L26 8L26 7L25 7L25 6ZM9 9L9 10L10 10L10 9ZM28 9L28 10L30 10L30 9ZM34 9L34 10L35 10L35 9ZM0 10L0 12L1 12L1 10ZM13 10L13 11L14 11L14 14L13 14L13 15L12 15L12 16L13 16L13 15L15 15L15 13L16 13L16 14L17 14L17 15L16 15L16 17L15 17L15 18L16 18L16 20L17 20L17 21L18 21L18 22L17 22L17 23L16 23L16 24L15 24L15 25L16 25L16 26L17 26L17 24L19 24L19 25L18 25L18 26L19 26L19 25L20 25L20 23L18 23L18 22L19 22L19 20L22 20L22 21L20 21L20 22L22 22L22 23L21 23L21 24L22 24L22 23L23 23L23 22L25 22L25 21L26 21L26 22L27 22L27 21L31 21L31 22L32 22L32 21L31 21L31 20L30 20L30 19L29 19L29 18L25 18L25 19L20 19L20 18L19 18L19 17L17 17L17 15L19 15L19 14L20 14L20 13L19 13L19 12L20 12L20 11L19 11L19 12L18 12L18 14L17 14L17 13L16 13L16 12L15 12L15 11L17 11L17 10ZM6 12L6 13L7 13L7 12ZM30 12L30 13L31 13L31 12ZM0 13L0 16L1 16L1 13ZM4 14L4 16L3 16L3 17L4 17L4 16L5 16L5 14ZM7 15L7 16L8 16L8 15ZM31 15L31 16L32 16L32 15ZM12 17L12 18L13 18L13 19L12 19L12 20L14 20L14 17ZM16 17L16 18L17 18L17 19L19 19L19 18L17 18L17 17ZM22 17L22 18L23 18L23 17ZM25 19L25 20L24 20L24 21L25 21L25 20L26 20L26 21L27 21L27 20L28 20L28 19ZM10 20L10 21L11 21L11 20ZM22 21L22 22L23 22L23 21ZM6 23L6 24L7 24L7 23ZM21 26L21 27L22 27L22 28L23 28L23 27L22 27L22 26ZM34 26L34 27L35 27L35 26ZM6 27L6 28L7 28L7 27ZM15 27L15 30L17 30L17 31L18 31L18 33L17 33L17 34L18 34L18 33L19 33L19 31L18 31L18 30L17 30L17 29L18 29L18 28L17 28L17 29L16 29L16 27ZM24 27L24 28L25 28L25 27ZM29 29L29 32L32 32L32 29ZM30 30L30 31L31 31L31 30ZM34 31L34 32L33 32L33 33L34 33L34 32L35 32L35 31ZM8 32L8 35L9 35L9 32ZM11 33L11 35L14 35L14 34L12 34L12 33ZM26 33L26 34L25 34L25 35L24 35L24 36L28 36L28 35L29 35L29 36L30 36L30 35L29 35L29 34L30 34L30 33ZM21 36L21 37L22 37L22 36ZM0 0L0 7L7 7L7 0ZM1 1L1 6L6 6L6 1ZM2 2L2 5L5 5L5 2ZM30 0L30 7L37 7L37 0ZM31 1L31 6L36 6L36 1ZM32 2L32 5L35 5L35 2ZM0 30L0 37L7 37L7 30ZM1 31L1 36L6 36L6 31ZM2 32L2 35L5 35L5 32Z" fill="#000000"/></g></g></svg>
