<?xml version="1.0" encoding="UTF-8"?>
<svg xmlns="http://www.w3.org/2000/svg" version="1.1" width="300" height="300" viewBox="0 0 300 300"><rect x="0" y="0" width="300" height="300" fill="#ffffff"/><g transform="scale(8.108)"><g transform="translate(0,0)"><path fill-rule="evenodd" d="M10 0L10 2L9 2L9 3L10 3L10 4L8 4L8 5L10 5L10 4L12 4L12 7L11 7L11 6L10 6L10 7L11 7L11 8L12 8L12 7L13 7L13 9L14 9L14 7L15 7L15 5L17 5L17 6L16 6L16 9L15 9L15 10L14 10L14 11L16 11L16 9L18 9L18 7L19 7L19 6L20 6L20 7L21 7L21 8L19 8L19 10L18 10L18 12L17 12L17 13L19 13L19 14L23 14L23 12L24 12L24 13L25 13L25 15L26 15L26 16L24 16L24 17L23 17L23 19L22 19L22 18L21 18L21 17L22 17L22 16L23 16L23 15L22 15L22 16L21 16L21 15L20 15L20 17L17 17L17 16L19 16L19 15L16 15L16 14L15 14L15 13L16 13L16 12L15 12L15 13L14 13L14 15L13 15L13 16L11 16L11 17L10 17L10 15L12 15L12 14L13 14L13 12L12 12L12 14L11 14L11 11L13 11L13 10L12 10L12 9L10 9L10 8L9 8L9 6L8 6L8 8L6 8L6 9L8 9L8 10L9 10L9 11L7 11L7 10L5 10L5 9L4 9L4 8L2 8L2 9L3 9L3 10L2 10L2 11L1 11L1 12L0 12L0 15L3 15L3 17L2 17L2 16L1 16L1 17L0 17L0 18L1 18L1 17L2 17L2 19L5 19L5 15L4 15L4 14L5 14L5 13L4 13L4 12L3 12L3 13L4 13L4 14L1 14L1 13L2 13L2 11L7 11L7 12L6 12L6 13L7 13L7 14L6 14L6 15L7 15L7 14L8 14L8 13L9 13L9 14L10 14L10 15L9 15L9 17L8 17L8 16L6 16L6 17L8 17L8 19L7 19L7 18L6 18L6 19L7 19L7 20L6 20L6 21L5 21L5 20L4 20L4 21L3 21L3 20L2 20L2 21L3 21L3 22L2 22L2 23L1 23L1 24L4 24L4 25L3 25L3 27L5 27L5 28L6 28L6 29L8 29L8 31L11 31L11 32L12 32L12 33L13 33L13 34L11 34L11 33L10 33L10 32L9 32L9 33L8 33L8 35L9 35L9 34L11 34L11 35L15 35L15 36L14 36L14 37L16 37L16 36L17 36L17 37L20 37L20 35L21 35L21 37L28 37L28 34L29 34L29 33L30 33L30 35L29 35L29 37L37 37L37 36L35 36L35 35L36 35L36 34L35 34L35 33L34 33L34 32L33 32L33 28L31 28L31 27L30 27L30 28L29 28L29 25L28 25L28 26L26 26L26 25L25 25L25 26L24 26L24 25L23 25L23 24L27 24L27 21L28 21L28 22L29 22L29 23L28 23L28 24L30 24L30 25L31 25L31 24L30 24L30 21L29 21L29 20L32 20L32 21L34 21L34 20L32 20L32 14L33 14L33 17L34 17L34 18L35 18L35 21L36 21L36 19L37 19L37 15L35 15L35 14L34 14L34 13L35 13L35 11L34 11L34 9L33 9L33 8L32 8L32 9L31 9L31 8L29 8L29 5L28 5L28 4L29 4L29 3L27 3L27 1L26 1L26 0L25 0L25 1L26 1L26 2L25 2L25 3L23 3L23 2L24 2L24 0L22 0L22 1L23 1L23 2L22 2L22 3L23 3L23 4L21 4L21 2L20 2L20 4L21 4L21 5L19 5L19 6L18 6L18 3L19 3L19 2L18 2L18 1L17 1L17 0L16 0L16 1L15 1L15 0L14 0L14 2L15 2L15 3L16 3L16 4L15 4L15 5L14 5L14 3L11 3L11 2L13 2L13 0ZM20 0L20 1L21 1L21 0ZM16 2L16 3L18 3L18 2ZM21 5L21 7L22 7L22 8L21 8L21 9L20 9L20 10L19 10L19 11L21 11L21 13L22 13L22 12L23 12L23 10L24 10L24 9L25 9L25 10L26 10L26 13L27 13L27 12L28 12L28 10L29 10L29 13L28 13L28 14L27 14L27 17L28 17L28 18L29 18L29 16L30 16L30 17L31 17L31 16L30 16L30 15L31 15L31 14L32 14L32 13L31 13L31 14L30 14L30 12L32 12L32 11L33 11L33 13L34 13L34 11L33 11L33 10L30 10L30 9L29 9L29 8L28 8L28 5L27 5L27 9L25 9L25 8L24 8L24 6L23 6L23 7L22 7L22 5ZM25 5L25 7L26 7L26 5ZM13 6L13 7L14 7L14 6ZM17 6L17 7L18 7L18 6ZM0 9L0 10L1 10L1 9ZM9 9L9 10L10 10L10 11L11 11L11 10L10 10L10 9ZM27 9L27 10L28 10L28 9ZM7 12L7 13L8 13L8 12ZM9 12L9 13L10 13L10 12ZM36 12L36 14L37 14L37 12ZM28 14L28 16L29 16L29 15L30 15L30 14ZM14 15L14 16L13 16L13 17L12 17L12 19L11 19L11 18L10 18L10 19L9 19L9 20L7 20L7 21L6 21L6 22L3 22L3 23L4 23L4 24L5 24L5 23L6 23L6 24L7 24L7 25L4 25L4 26L7 26L7 25L8 25L8 26L9 26L9 28L11 28L11 29L9 29L9 30L11 30L11 29L12 29L12 32L13 32L13 33L14 33L14 32L17 32L17 33L16 33L16 34L15 34L15 35L18 35L18 36L19 36L19 33L20 33L20 32L21 32L21 34L23 34L23 35L27 35L27 34L28 34L28 32L27 32L27 33L26 33L26 31L28 31L28 29L27 29L27 28L28 28L28 27L27 27L27 28L26 28L26 27L25 27L25 28L26 28L26 29L24 29L24 30L22 30L22 29L21 29L21 30L20 30L20 27L22 27L22 28L24 28L24 26L20 26L20 27L19 27L19 25L20 25L20 24L21 24L21 25L22 25L22 24L23 24L23 22L24 22L24 21L25 21L25 23L26 23L26 21L27 21L27 20L29 20L29 19L27 19L27 18L26 18L26 19L24 19L24 20L22 20L22 19L21 19L21 18L18 18L18 19L17 19L17 20L18 20L18 21L16 21L16 20L13 20L13 19L14 19L14 18L13 18L13 17L15 17L15 18L16 18L16 17L15 17L15 15ZM34 15L34 16L35 16L35 15ZM3 17L3 18L4 18L4 17ZM24 17L24 18L25 18L25 17ZM35 17L35 18L36 18L36 17ZM0 19L0 22L1 22L1 19ZM10 19L10 20L11 20L11 19ZM12 20L12 21L13 21L13 22L11 22L11 23L10 23L10 22L9 22L9 21L8 21L8 24L9 24L9 23L10 23L10 24L11 24L11 25L9 25L9 26L11 26L11 27L12 27L12 28L13 28L13 27L14 27L14 26L13 26L13 25L14 25L14 24L15 24L15 27L16 27L16 26L17 26L17 27L18 27L18 29L16 29L16 30L15 30L15 29L14 29L14 30L13 30L13 32L14 32L14 30L15 30L15 31L16 31L16 30L18 30L18 29L19 29L19 27L18 27L18 25L16 25L16 24L18 24L18 23L19 23L19 24L20 24L20 23L21 23L21 24L22 24L22 23L21 23L21 22L20 22L20 23L19 23L19 21L20 21L20 20L19 20L19 21L18 21L18 23L17 23L17 22L16 22L16 21L15 21L15 22L16 22L16 24L15 24L15 23L14 23L14 21L13 21L13 20ZM21 20L21 21L22 21L22 20ZM6 22L6 23L7 23L7 22ZM31 22L31 23L32 23L32 22ZM33 22L33 23L34 23L34 24L33 24L33 25L32 25L32 27L33 27L33 26L34 26L34 25L35 25L35 24L36 24L36 26L37 26L37 23L34 23L34 22ZM11 23L11 24L14 24L14 23ZM1 25L1 27L0 27L0 28L1 28L1 27L2 27L2 25ZM11 25L11 26L12 26L12 25ZM6 27L6 28L7 28L7 27ZM2 28L2 29L4 29L4 28ZM34 28L34 29L35 29L35 30L36 30L36 31L37 31L37 29L35 29L35 28ZM29 29L29 32L32 32L32 29ZM19 30L19 31L17 31L17 32L18 32L18 33L19 33L19 31L20 31L20 30ZM24 30L24 32L25 32L25 30ZM30 30L30 31L31 31L31 30ZM22 32L22 33L23 33L23 32ZM31 34L31 35L30 35L30 36L34 36L34 35L35 35L35 34L34 34L34 35L32 35L32 34ZM10 36L10 37L12 37L12 36ZM0 0L0 7L7 7L7 0ZM1 1L1 6L6 6L6 1ZM2 2L2 5L5 5L5 2ZM30 0L30 7L37 7L37 0ZM31 1L31 6L36 6L36 1ZM32 2L32 5L35 5L35 2ZM0 30L0 37L7 37L7 30ZM1 31L1 36L6 36L6 31ZM2 32L2 35L5 35L5 32Z" fill="#000000"/></g></g></svg>
