<?xml version="1.0" encoding="UTF-8"?>
<svg xmlns="http://www.w3.org/2000/svg" version="1.1" width="300" height="300" viewBox="0 0 300 300"><rect x="0" y="0" width="300" height="300" fill="#ffffff"/><g transform="scale(8.108)"><g transform="translate(0,0)"><path fill-rule="evenodd" d="M8 0L8 3L9 3L9 5L8 5L8 9L7 9L7 8L6 8L6 9L5 9L5 8L2 8L2 10L1 10L1 9L0 9L0 10L1 10L1 11L0 11L0 14L1 14L1 16L2 16L2 17L3 17L3 18L2 18L2 19L1 19L1 17L0 17L0 20L1 20L1 21L0 21L0 29L1 29L1 25L3 25L3 24L4 24L4 25L5 25L5 29L7 29L7 28L8 28L8 30L9 30L9 31L10 31L10 32L12 32L12 33L10 33L10 34L13 34L13 31L14 31L14 32L15 32L15 34L14 34L14 35L15 35L15 36L17 36L17 37L21 37L21 36L22 36L22 37L27 37L27 36L29 36L29 35L30 35L30 36L31 36L31 37L37 37L37 34L36 34L36 36L34 36L34 35L35 35L35 34L34 34L34 33L37 33L37 30L36 30L36 29L37 29L37 26L36 26L36 25L37 25L37 24L36 24L36 23L37 23L37 22L36 22L36 21L37 21L37 18L36 18L36 17L37 17L37 14L36 14L36 13L35 13L35 12L37 12L37 10L36 10L36 9L37 9L37 8L34 8L34 9L35 9L35 10L36 10L36 11L35 11L35 12L34 12L34 10L33 10L33 9L32 9L32 8L28 8L28 7L29 7L29 4L28 4L28 3L29 3L29 2L28 2L28 1L26 1L26 3L25 3L25 4L24 4L24 3L23 3L23 4L24 4L24 5L25 5L25 6L24 6L24 7L23 7L23 5L22 5L22 3L21 3L21 5L20 5L20 8L19 8L19 4L18 4L18 3L16 3L16 2L18 2L18 1L16 1L16 2L13 2L13 0L12 0L12 1L10 1L10 0ZM14 0L14 1L15 1L15 0ZM19 0L19 1L21 1L21 2L22 2L22 1L21 1L21 0ZM23 0L23 1L24 1L24 2L25 2L25 1L24 1L24 0ZM10 2L10 4L12 4L12 3L13 3L13 5L14 5L14 4L16 4L16 5L17 5L17 7L18 7L18 5L17 5L17 4L16 4L16 3L13 3L13 2L12 2L12 3L11 3L11 2ZM26 3L26 4L27 4L27 5L28 5L28 4L27 4L27 3ZM10 5L10 6L9 6L9 8L11 8L11 7L12 7L12 5ZM10 6L10 7L11 7L11 6ZM13 6L13 7L14 7L14 8L13 8L13 9L12 9L12 11L13 11L13 12L15 12L15 11L14 11L14 10L13 10L13 9L14 9L14 8L15 8L15 9L16 9L16 12L17 12L17 15L16 15L16 14L14 14L14 13L13 13L13 14L10 14L10 13L9 13L9 15L6 15L6 14L7 14L7 13L8 13L8 11L10 11L10 12L11 12L11 13L12 13L12 12L11 12L11 9L10 9L10 10L8 10L8 11L6 11L6 12L7 12L7 13L6 13L6 14L5 14L5 13L4 13L4 12L5 12L5 11L4 11L4 9L3 9L3 10L2 10L2 12L3 12L3 13L4 13L4 14L2 14L2 13L1 13L1 14L2 14L2 16L3 16L3 17L4 17L4 18L3 18L3 19L2 19L2 20L3 20L3 19L4 19L4 18L5 18L5 20L4 20L4 22L8 22L8 24L9 24L9 25L8 25L8 26L9 26L9 27L8 27L8 28L9 28L9 29L10 29L10 31L11 31L11 29L12 29L12 31L13 31L13 30L14 30L14 31L15 31L15 30L14 30L14 29L13 29L13 28L16 28L16 29L17 29L17 28L18 28L18 27L20 27L20 28L19 28L19 30L17 30L17 31L16 31L16 32L18 32L18 31L19 31L19 33L16 33L16 34L17 34L17 36L19 36L19 33L20 33L20 34L25 34L25 35L24 35L24 36L26 36L26 35L27 35L27 34L25 34L25 33L24 33L24 32L26 32L26 33L27 33L27 32L26 32L26 31L28 31L28 27L29 27L29 28L33 28L33 32L36 32L36 30L35 30L35 29L34 29L34 28L36 28L36 26L34 26L34 28L33 28L33 27L30 27L30 26L27 26L27 28L26 28L26 26L24 26L24 25L27 25L27 24L28 24L28 25L30 25L30 24L28 24L28 23L30 23L30 22L32 22L32 24L31 24L31 26L33 26L33 23L34 23L34 24L35 24L35 25L36 25L36 24L35 24L35 23L36 23L36 22L35 22L35 21L34 21L34 20L36 20L36 18L34 18L34 20L33 20L33 21L27 21L27 20L26 20L26 19L27 19L27 18L28 18L28 17L29 17L29 19L30 19L30 18L32 18L32 19L33 19L33 17L29 17L29 16L30 16L30 15L29 15L29 14L31 14L31 16L35 16L35 17L36 17L36 14L35 14L35 13L34 13L34 12L33 12L33 13L29 13L29 11L30 11L30 12L31 12L31 11L32 11L32 10L31 10L31 11L30 11L30 9L28 9L28 10L29 10L29 11L28 11L28 13L27 13L27 11L25 11L25 10L27 10L27 9L26 9L26 8L27 8L27 7L28 7L28 6L27 6L27 7L26 7L26 6L25 6L25 7L24 7L24 9L23 9L23 8L22 8L22 6L21 6L21 9L22 9L22 10L21 10L21 12L22 12L22 13L21 13L21 14L22 14L22 13L23 13L23 14L24 14L24 15L22 15L22 16L21 16L21 15L20 15L20 16L18 16L18 13L20 13L20 12L18 12L18 11L20 11L20 9L19 9L19 8L18 8L18 9L17 9L17 8L15 8L15 7L16 7L16 6L15 6L15 7L14 7L14 6ZM25 7L25 8L26 8L26 7ZM6 9L6 10L7 10L7 9ZM18 9L18 10L19 10L19 9ZM22 10L22 11L23 11L23 12L24 12L24 13L25 13L25 14L26 14L26 16L25 16L25 15L24 15L24 16L25 16L25 17L28 17L28 16L29 16L29 15L28 15L28 14L29 14L29 13L28 13L28 14L26 14L26 12L25 12L25 11L24 11L24 10ZM3 11L3 12L4 12L4 11ZM33 13L33 14L32 14L32 15L33 15L33 14L34 14L34 13ZM3 15L3 16L4 16L4 17L5 17L5 18L6 18L6 19L7 19L7 18L6 18L6 17L7 17L7 16L6 16L6 15L5 15L5 16L4 16L4 15ZM9 15L9 16L10 16L10 17L8 17L8 20L9 20L9 19L10 19L10 21L11 21L11 22L12 22L12 21L11 21L11 18L10 18L10 17L13 17L13 16L14 16L14 17L15 17L15 18L14 18L14 19L15 19L15 20L13 20L13 22L14 22L14 21L15 21L15 22L18 22L18 21L19 21L19 22L20 22L20 23L19 23L19 24L22 24L22 25L21 25L21 26L22 26L22 25L23 25L23 24L24 24L24 23L25 23L25 22L23 22L23 23L22 23L22 21L21 21L21 20L20 20L20 21L19 21L19 20L18 20L18 19L19 19L19 17L18 17L18 16L16 16L16 15L15 15L15 16L14 16L14 15L11 15L11 16L10 16L10 15ZM27 15L27 16L28 16L28 15ZM22 16L22 17L20 17L20 19L22 19L22 17L23 17L23 16ZM12 18L12 19L13 19L13 18ZM15 18L15 19L18 19L18 18ZM23 18L23 19L26 19L26 18ZM5 20L5 21L7 21L7 20ZM15 20L15 21L18 21L18 20ZM23 20L23 21L26 21L26 22L27 22L27 23L26 23L26 24L27 24L27 23L28 23L28 22L27 22L27 21L26 21L26 20ZM1 21L1 22L2 22L2 21ZM20 21L20 22L21 22L21 21ZM33 21L33 22L34 22L34 23L35 23L35 22L34 22L34 21ZM9 22L9 23L10 23L10 24L13 24L13 25L12 25L12 26L11 26L11 25L10 25L10 26L11 26L11 27L9 27L9 28L11 28L11 27L12 27L12 28L13 28L13 25L14 25L14 26L15 26L15 27L16 27L16 26L15 26L15 25L17 25L17 27L18 27L18 26L19 26L19 25L17 25L17 23L15 23L15 24L13 24L13 23L10 23L10 22ZM5 23L5 24L7 24L7 23ZM6 25L6 26L7 26L7 25ZM2 27L2 29L4 29L4 27ZM6 27L6 28L7 28L7 27ZM22 27L22 29L23 29L23 30L24 30L24 31L23 31L23 32L24 32L24 31L25 31L25 29L26 29L26 30L27 30L27 29L26 29L26 28L25 28L25 27L24 27L24 28L25 28L25 29L23 29L23 27ZM29 29L29 32L32 32L32 29ZM30 30L30 31L31 31L31 30ZM21 31L21 32L22 32L22 31ZM8 32L8 35L9 35L9 32ZM29 33L29 34L28 34L28 35L29 35L29 34L30 34L30 35L32 35L32 36L33 36L33 34L30 34L30 33ZM11 35L11 37L14 37L14 36L13 36L13 35ZM20 35L20 36L21 36L21 35ZM9 36L9 37L10 37L10 36ZM0 0L0 7L7 7L7 0ZM1 1L1 6L6 6L6 1ZM2 2L2 5L5 5L5 2ZM30 0L30 7L37 7L37 0ZM31 1L31 6L36 6L36 1ZM32 2L32 5L35 5L35 2ZM0 30L0 37L7 37L7 30ZM1 31L1 36L6 36L6 31ZM2 32L2 35L5 35L5 32Z" fill="#000000"/></g></g></svg>
